<svg version="1.2" baseProfile="tiny" id="EdgeSVG_Q15GN" x="0px" y="0px" width="153.143px" height="86.465px" viewBox="0 0 153.143 86.465" xmlns:xlink="http://www.w3.org/1999/xlink" xmlns="http://www.w3.org/2000/svg">
  <linearGradient id="SVGID_2_" gradientUnits="userSpaceOnUse" x1="7.1143" y1="43.0532" x2="146.4478" y2="43.0532">
    <stop offset="0" style="stop-color:#000000;stop-opacity:0.2"/>
    <stop offset="0.1119" style="stop-color:#050505;stop-opacity:0.2"/>
    <stop offset="0.6508" style="stop-color:#1B1819;stop-opacity:0.2"/>
    <stop offset="1" style="stop-color:#231F20;stop-opacity:0.2"/>
  </linearGradient>
  <path fill="url(#SVGID_2_)" d="M143.768,6.516H9.793c-1.48,0-2.679,1.2-2.679,2.68v67.715c0,1.48,1.199,2.679,2.679,2.679h133.975&#xD;&#xA;&#x9;&#x9;c1.48,0,2.68-1.199,2.68-2.679V9.196C146.448,7.716,145.249,6.516,143.768,6.516z"/>
  <linearGradient id="SVGID_3_" gradientUnits="userSpaceOnUse" x1="76.5713" y1="85.1147" x2="76.5713" y2="1.3501">
    <stop offset="0" style="stop-color:#000000;stop-opacity:0.2"/>
    <stop offset="1" style="stop-color:#FFFFFF;stop-opacity:0.2"/>
  </linearGradient>
  <path fill="url(#SVGID_3_)" d="M6.177,85.115c-2.662,0-4.827-2.165-4.827-4.827V6.177c0-2.662,2.166-4.827,4.827-4.827h140.788&#xD;&#xA;&#x9;&#x9;c2.661,0,4.827,2.165,4.827,4.827v74.111c0,2.662-2.166,4.827-4.827,4.827H6.177z"/>
  <linearGradient id="SVGID_4_" gradientUnits="userSpaceOnUse" x1="76.5703" y1="78.5161" x2="76.5703" y2="5.4419">
    <stop offset="0" style="stop-color:#FFFFFF;stop-opacity:0"/>
    <stop offset="0.0849" style="stop-color:#F6F6F6;stop-opacity:0.0255"/>
    <stop offset="0.2235" style="stop-color:#DEDEDE;stop-opacity:0.067"/>
    <stop offset="0.3985" style="stop-color:#B6B6B6;stop-opacity:0.1195"/>
    <stop offset="0.6031" style="stop-color:#7F7F7F;stop-opacity:0.1809"/>
    <stop offset="0.8298" style="stop-color:#393939;stop-opacity:0.2489"/>
    <stop offset="1" style="stop-color:#000000;stop-opacity:0.3"/>
  </linearGradient>
  <path fill="url(#SVGID_4_)" d="M6.903,77.09c0,1.48,1.199,2.679,2.679,2.679h133.975c1.48,0,2.68-1.199,2.68-2.679V9.375&#xD;&#xA;&#x9;&#x9;c0-1.479-1.199-2.679-2.68-2.679H9.583c-1.48,0-2.679,1.2-2.679,2.679V77.09z"/>
  <linearGradient id="SVGID_5_" gradientUnits="userSpaceOnUse" x1="143.8472" y1="43.2324" x2="4.5142" y2="43.2324">
    <stop offset="0" style="stop-color:#FFFFFF;stop-opacity:0"/>
    <stop offset="0.0849" style="stop-color:#F6F6F6;stop-opacity:0.0255"/>
    <stop offset="0.2235" style="stop-color:#DEDEDE;stop-opacity:0.067"/>
    <stop offset="0.3985" style="stop-color:#B6B6B6;stop-opacity:0.1195"/>
    <stop offset="0.6031" style="stop-color:#7F7F7F;stop-opacity:0.1809"/>
    <stop offset="0.8298" style="stop-color:#393939;stop-opacity:0.2489"/>
    <stop offset="1" style="stop-color:#000000;stop-opacity:0.3"/>
  </linearGradient>
  <path fill="url(#SVGID_5_)" d="M6.903,77.09c0,1.48,1.199,2.679,2.679,2.679h133.975c1.48,0,2.68-1.199,2.68-2.679V9.375&#xD;&#xA;&#x9;&#x9;c0-1.479-1.199-2.679-2.68-2.679H9.583c-1.48,0-2.679,1.2-2.679,2.679V77.09z"/>
  <linearGradient id="SVGID_6_" gradientUnits="userSpaceOnUse" x1="76.5698" y1="7.9487" x2="76.5698" y2="81.0229">
    <stop offset="0" style="stop-color:#FFFFFF;stop-opacity:0"/>
    <stop offset="0.0891" style="stop-color:#F8F8F8;stop-opacity:0.0267"/>
    <stop offset="0.2165" style="stop-color:#E5E5E5;stop-opacity:0.0649"/>
    <stop offset="0.3669" style="stop-color:#C6C6C6;stop-opacity:0.1101"/>
    <stop offset="0.5351" style="stop-color:#9B9B9B;stop-opacity:0.1605"/>
    <stop offset="0.7179" style="stop-color:#646464;stop-opacity:0.2154"/>
    <stop offset="0.9101" style="stop-color:#222222;stop-opacity:0.273"/>
    <stop offset="1" style="stop-color:#000000;stop-opacity:0.3"/>
  </linearGradient>
  <path fill="url(#SVGID_6_)" d="M6.903,77.09c0,1.48,1.199,2.679,2.679,2.679h133.975c1.48,0,2.68-1.199,2.68-2.679V9.375&#xD;&#xA;&#x9;&#x9;c0-1.479-1.199-2.679-2.68-2.679H9.583c-1.48,0-2.679,1.2-2.679,2.679V77.09z"/>
  <linearGradient id="SVGID_7_" gradientUnits="userSpaceOnUse" x1="143.8472" y1="43.2324" x2="4.5142" y2="43.2324">
    <stop offset="0" style="stop-color:#000000;stop-opacity:0.3"/>
    <stop offset="0.2229" style="stop-color:#4C4C4C;stop-opacity:0.2331"/>
    <stop offset="0.4308" style="stop-color:#8C8C8C;stop-opacity:0.1708"/>
    <stop offset="0.6182" style="stop-color:#BEBEBE;stop-opacity:0.1145"/>
    <stop offset="0.7815" style="stop-color:#E1E1E1;stop-opacity:0.0656"/>
    <stop offset="0.9143" style="stop-color:#F7F7F7;stop-opacity:0.0257"/>
    <stop offset="1" style="stop-color:#FFFFFF;stop-opacity:0"/>
  </linearGradient>
  <path fill="url(#SVGID_7_)" d="M6.903,77.09c0,1.48,1.199,2.679,2.679,2.679h133.975c1.48,0,2.68-1.199,2.68-2.679V9.375&#xD;&#xA;&#x9;&#x9;c0-1.479-1.199-2.679-2.68-2.679H9.583c-1.48,0-2.679,1.2-2.679,2.679V77.09z"/>
  <linearGradient id="SVGID_8_" gradientUnits="userSpaceOnUse" x1="6.5674" y1="43.2329" x2="146.5728" y2="43.2329">
    <stop offset="0" style="stop-color:#000000;stop-opacity:0.5"/>
    <stop offset="1" style="stop-color:#000000;stop-opacity:0.7"/>
  </linearGradient>
  <path fill="url(#SVGID_8_)" d="M143.557,80.105H9.583c-1.663,0-3.015-1.353-3.015-3.015V9.375c0-1.662,1.353-3.015,3.015-3.015&#xD;&#xA;&#x9;&#x9;h133.975c1.662,0,3.016,1.353,3.016,3.015V77.09C146.573,78.753,145.219,80.105,143.557,80.105z M9.583,7.031&#xD;&#xA;&#x9;&#x9;c-1.292,0-2.344,1.052-2.344,2.344V77.09c0,1.292,1.051,2.344,2.344,2.344h133.975c1.293,0,2.344-1.052,2.344-2.344V9.375&#xD;&#xA;&#x9;&#x9;c0-1.292-1.051-2.344-2.344-2.344H9.583z"/>
  <linearGradient id="SVGID_9_" gradientUnits="userSpaceOnUse" x1="76.5713" y1="80.3057" x2="76.5713" y2="13.8727">
    <stop offset="0" style="stop-color:#FFFFFF;stop-opacity:0.5"/>
    <stop offset="1" style="stop-color:#000000;stop-opacity:0.5"/>
  </linearGradient>
  <path fill="url(#SVGID_9_)" d="M143.826,80.306H9.316c-1.625,0-2.947-1.322-2.947-2.947V9.107c0-1.625,1.322-2.947,2.947-2.947&#xD;&#xA;&#x9;&#x9;h134.509c1.625,0,2.947,1.322,2.947,2.947v68.251C146.773,78.983,145.451,80.306,143.826,80.306z M9.316,6.695&#xD;&#xA;&#x9;&#x9;c-1.33,0-2.412,1.082-2.412,2.412v68.251c0,1.33,1.082,2.411,2.412,2.411h134.509c1.329,0,2.411-1.082,2.411-2.411V9.107&#xD;&#xA;&#x9;&#x9;c0-1.33-1.082-2.412-2.411-2.412H9.316z"/>
  <g>
    <linearGradient id="SVGID_10_" gradientUnits="userSpaceOnUse" x1="11.4639" y1="15.0259" x2="141.8013" y2="15.0259">
      <stop offset="0" style="stop-color:#FFFFFF;stop-opacity:0.2"/>
      <stop offset="0.1595" style="stop-color:#000000;stop-opacity:0.05"/>
      <stop offset="0.5" style="stop-color:#FFFFFF;stop-opacity:0.3"/>
      <stop offset="0.8589" style="stop-color:#000000;stop-opacity:0.1"/>
      <stop offset="1" style="stop-color:#FFFFFF;stop-opacity:0.2"/>
    </linearGradient>
    <rect x="11.464" y="14.815" fill="url(#SVGID_10_)" width="130.337" height="0.421"/>
    <linearGradient id="SVGID_11_" gradientUnits="userSpaceOnUse" x1="11.4644" y1="71.2612" x2="141.8022" y2="71.2612">
      <stop offset="0" style="stop-color:#FFFFFF;stop-opacity:0.2"/>
      <stop offset="0.1595" style="stop-color:#000000;stop-opacity:0.05"/>
      <stop offset="0.5" style="stop-color:#FFFFFF;stop-opacity:0.3"/>
      <stop offset="0.8589" style="stop-color:#000000;stop-opacity:0.1"/>
      <stop offset="1" style="stop-color:#FFFFFF;stop-opacity:0.2"/>
    </linearGradient>
    <rect x="11.465" y="71.051" fill="url(#SVGID_11_)" width="130.337" height="0.421"/>
  </g>
  <g>
    <linearGradient id="SVGID_12_" gradientUnits="userSpaceOnUse" x1="71.7266" y1="14.5098" x2="14.3376" y2="71.8987">
      <stop offset="0" style="stop-color:#FFFFFF;stop-opacity:0.2"/>
      <stop offset="0.1595" style="stop-color:#000000;stop-opacity:0.1"/>
      <stop offset="0.5" style="stop-color:#FFFFFF;stop-opacity:0.3"/>
      <stop offset="0.8589" style="stop-color:#000000;stop-opacity:0.05"/>
      <stop offset="1" style="stop-color:#FFFFFF;stop-opacity:0.2"/>
    </linearGradient>
    <polygon fill="url(#SVGID_12_)" points="13.61,71.17 72.751,15.535 72.454,15.237 13.312,70.873 &#x9;&#x9;"/>
    <linearGradient id="SVGID_13_" gradientUnits="userSpaceOnUse" x1="139.3579" y1="14.5962" x2="81.4805" y2="72.4736">
      <stop offset="0" style="stop-color:#FFFFFF;stop-opacity:0.2"/>
      <stop offset="0.1595" style="stop-color:#000000;stop-opacity:0.1"/>
      <stop offset="0.5" style="stop-color:#FFFFFF;stop-opacity:0.3"/>
      <stop offset="0.8589" style="stop-color:#000000;stop-opacity:0.05"/>
      <stop offset="1" style="stop-color:#FFFFFF;stop-opacity:0.2"/>
    </linearGradient>
    <polygon fill="url(#SVGID_13_)" points="80.839,71.832 140.296,15.535 139.999,15.237 80.541,71.534 &#x9;&#x9;"/>
    <linearGradient id="SVGID_14_" gradientUnits="userSpaceOnUse" x1="42.752" y1="14.5703" x2="13.9622" y2="43.3601">
      <stop offset="0" style="stop-color:#FFFFFF;stop-opacity:0.2"/>
      <stop offset="0.1595" style="stop-color:#000000;stop-opacity:0.1"/>
      <stop offset="0.5" style="stop-color:#FFFFFF;stop-opacity:0.3"/>
      <stop offset="0.8589" style="stop-color:#000000;stop-opacity:0.05"/>
      <stop offset="1" style="stop-color:#FFFFFF;stop-opacity:0.2"/>
    </linearGradient>
    <polygon fill="url(#SVGID_14_)" points="13.716,43.113 43.295,15.114 42.998,14.816 13.417,42.815 &#x9;&#x9;"/>
    <linearGradient id="SVGID_15_" gradientUnits="userSpaceOnUse" x1="72.208" y1="42.9868" x2="43.4182" y2="71.7766">
      <stop offset="0" style="stop-color:#FFFFFF;stop-opacity:0.2"/>
      <stop offset="0.1595" style="stop-color:#000000;stop-opacity:0.1"/>
      <stop offset="0.5" style="stop-color:#FFFFFF;stop-opacity:0.3"/>
      <stop offset="0.8589" style="stop-color:#000000;stop-opacity:0.05"/>
      <stop offset="1" style="stop-color:#FFFFFF;stop-opacity:0.2"/>
    </linearGradient>
    <polygon fill="url(#SVGID_15_)" points="43.172,71.53 72.751,43.531 72.454,43.232 42.874,71.232 &#x9;&#x9;"/>
    <linearGradient id="SVGID_16_" gradientUnits="userSpaceOnUse" x1="109.6646" y1="14.6294" x2="80.8743" y2="43.4197">
      <stop offset="0" style="stop-color:#FFFFFF;stop-opacity:0.2"/>
      <stop offset="0.1595" style="stop-color:#000000;stop-opacity:0.1"/>
      <stop offset="0.5" style="stop-color:#FFFFFF;stop-opacity:0.3"/>
      <stop offset="0.8589" style="stop-color:#000000;stop-opacity:0.05"/>
      <stop offset="1" style="stop-color:#FFFFFF;stop-opacity:0.2"/>
    </linearGradient>
    <polygon fill="url(#SVGID_16_)" points="80.628,43.173 110.208,15.174 109.911,14.875 80.33,42.875 &#x9;&#x9;"/>
    <linearGradient id="SVGID_17_" gradientUnits="userSpaceOnUse" x1="139.7524" y1="43.0464" x2="110.9626" y2="71.8362">
      <stop offset="0" style="stop-color:#FFFFFF;stop-opacity:0.2"/>
      <stop offset="0.1595" style="stop-color:#000000;stop-opacity:0.1"/>
      <stop offset="0.5" style="stop-color:#FFFFFF;stop-opacity:0.3"/>
      <stop offset="0.8589" style="stop-color:#000000;stop-opacity:0.05"/>
      <stop offset="1" style="stop-color:#FFFFFF;stop-opacity:0.2"/>
    </linearGradient>
    <polygon fill="url(#SVGID_17_)" points="110.717,71.59 140.296,43.591 139.999,43.292 110.418,71.292 &#x9;&#x9;"/>
  </g>
  <g>
    <linearGradient id="SVGID_18_" gradientUnits="userSpaceOnUse" x1="13.9351" y1="14.1748" x2="71.8122" y2="72.0519">
      <stop offset="0" style="stop-color:#FFFFFF;stop-opacity:0.2"/>
      <stop offset="0.1595" style="stop-color:#000000;stop-opacity:0.05"/>
      <stop offset="0.5" style="stop-color:#FFFFFF;stop-opacity:0.3"/>
      <stop offset="0.8589" style="stop-color:#000000;stop-opacity:0.1"/>
      <stop offset="1" style="stop-color:#FFFFFF;stop-opacity:0.2"/>
    </linearGradient>
    <polygon fill="url(#SVGID_18_)" points="72.453,71.411 12.996,15.114 13.293,14.815 72.751,71.113 &#x9;&#x9;"/>
    <linearGradient id="SVGID_19_" gradientUnits="userSpaceOnUse" x1="81.48" y1="14.2939" x2="139.3578" y2="72.1717">
      <stop offset="0" style="stop-color:#FFFFFF;stop-opacity:0.2"/>
      <stop offset="0.1595" style="stop-color:#000000;stop-opacity:0.05"/>
      <stop offset="0.5" style="stop-color:#FFFFFF;stop-opacity:0.3"/>
      <stop offset="0.8589" style="stop-color:#000000;stop-opacity:0.1"/>
      <stop offset="1" style="stop-color:#FFFFFF;stop-opacity:0.2"/>
    </linearGradient>
    <polygon fill="url(#SVGID_19_)" points="139.998,71.53 80.541,15.233 80.838,14.935 140.296,71.232 &#x9;&#x9;"/>
    <linearGradient id="SVGID_20_" gradientUnits="userSpaceOnUse" x1="43.207" y1="14.5103" x2="71.9968" y2="43.3">
      <stop offset="0" style="stop-color:#FFFFFF;stop-opacity:0.2"/>
      <stop offset="0.1595" style="stop-color:#000000;stop-opacity:0.05"/>
      <stop offset="0.5" style="stop-color:#FFFFFF;stop-opacity:0.3"/>
      <stop offset="0.8589" style="stop-color:#000000;stop-opacity:0.1"/>
      <stop offset="1" style="stop-color:#FFFFFF;stop-opacity:0.2"/>
    </linearGradient>
    <polygon fill="url(#SVGID_20_)" points="72.242,43.054 42.663,15.054 42.96,14.756 72.541,42.756 &#x9;&#x9;"/>
    <linearGradient id="SVGID_21_" gradientUnits="userSpaceOnUse" x1="13.751" y1="42.9272" x2="42.5407" y2="71.717">
      <stop offset="0" style="stop-color:#FFFFFF;stop-opacity:0.2"/>
      <stop offset="0.1595" style="stop-color:#000000;stop-opacity:0.05"/>
      <stop offset="0.5" style="stop-color:#FFFFFF;stop-opacity:0.3"/>
      <stop offset="0.8589" style="stop-color:#000000;stop-opacity:0.1"/>
      <stop offset="1" style="stop-color:#FFFFFF;stop-opacity:0.2"/>
    </linearGradient>
    <polygon fill="url(#SVGID_21_)" points="42.786,71.47 13.207,43.471 13.504,43.173 43.084,71.172 &#x9;&#x9;"/>
    <linearGradient id="SVGID_22_" gradientUnits="userSpaceOnUse" x1="110.8569" y1="14.5103" x2="139.6474" y2="43.3007">
      <stop offset="0" style="stop-color:#FFFFFF;stop-opacity:0.2"/>
      <stop offset="0.1595" style="stop-color:#000000;stop-opacity:0.05"/>
      <stop offset="0.5" style="stop-color:#FFFFFF;stop-opacity:0.3"/>
      <stop offset="0.8589" style="stop-color:#000000;stop-opacity:0.1"/>
      <stop offset="1" style="stop-color:#FFFFFF;stop-opacity:0.2"/>
    </linearGradient>
    <polygon fill="url(#SVGID_22_)" points="139.892,43.054 110.313,15.054 110.611,14.756 140.191,42.756 &#x9;&#x9;"/>
    <linearGradient id="SVGID_23_" gradientUnits="userSpaceOnUse" x1="80.769" y1="42.9272" x2="109.5588" y2="71.717">
      <stop offset="0" style="stop-color:#FFFFFF;stop-opacity:0.2"/>
      <stop offset="0.1595" style="stop-color:#000000;stop-opacity:0.05"/>
      <stop offset="0.5" style="stop-color:#FFFFFF;stop-opacity:0.3"/>
      <stop offset="0.8589" style="stop-color:#000000;stop-opacity:0.1"/>
      <stop offset="1" style="stop-color:#FFFFFF;stop-opacity:0.2"/>
    </linearGradient>
    <polygon fill="url(#SVGID_23_)" points="109.804,71.47 80.225,43.471 80.522,43.173 110.103,71.172 &#x9;&#x9;"/>
  </g>
  <g>
    <linearGradient id="SVGID_24_" gradientUnits="userSpaceOnUse" x1="13.207" y1="11.0767" x2="13.207" y2="75.4673">
      <stop offset="0" style="stop-color:#FFFFFF;stop-opacity:0.1"/>
      <stop offset="0.1595" style="stop-color:#000000;stop-opacity:0.1"/>
      <stop offset="0.5" style="stop-color:#FFFFFF;stop-opacity:0.3"/>
      <stop offset="0.8589" style="stop-color:#000000;stop-opacity:0.05"/>
      <stop offset="1" style="stop-color:#FFFFFF;stop-opacity:0.1"/>
    </linearGradient>
    <polygon fill="url(#SVGID_24_)" points="12.996,75.28 12.996,11.28 13.417,11.077 13.417,75.467 &#x9;&#x9;"/>
    <linearGradient id="SVGID_25_" gradientUnits="userSpaceOnUse" x1="72.6016" y1="11.1494" x2="72.6016" y2="75.5659">
      <stop offset="0" style="stop-color:#FFFFFF;stop-opacity:0.1"/>
      <stop offset="0.1595" style="stop-color:#000000;stop-opacity:0.1"/>
      <stop offset="0.5" style="stop-color:#FFFFFF;stop-opacity:0.3"/>
      <stop offset="0.8589" style="stop-color:#000000;stop-opacity:0.05"/>
      <stop offset="1" style="stop-color:#FFFFFF;stop-opacity:0.1"/>
    </linearGradient>
    <rect x="72.391" y="11.15" fill="url(#SVGID_25_)" width="0.421" height="64.416"/>
    <linearGradient id="SVGID_26_" gradientUnits="userSpaceOnUse" x1="80.541" y1="11.1494" x2="80.541" y2="75.5659">
      <stop offset="0" style="stop-color:#FFFFFF;stop-opacity:0.1"/>
      <stop offset="0.1595" style="stop-color:#000000;stop-opacity:0.1"/>
      <stop offset="0.5" style="stop-color:#FFFFFF;stop-opacity:0.3"/>
      <stop offset="0.8589" style="stop-color:#000000;stop-opacity:0.05"/>
      <stop offset="1" style="stop-color:#FFFFFF;stop-opacity:0.1"/>
    </linearGradient>
    <rect x="80.33" y="11.15" fill="url(#SVGID_26_)" width="0.421" height="64.416"/>
    <linearGradient id="SVGID_27_" gradientUnits="userSpaceOnUse" x1="140.4966" y1="11.1499" x2="140.4966" y2="75.5664">
      <stop offset="0" style="stop-color:#FFFFFF;stop-opacity:0.1"/>
      <stop offset="0.1595" style="stop-color:#000000;stop-opacity:0.1"/>
      <stop offset="0.5" style="stop-color:#FFFFFF;stop-opacity:0.3"/>
      <stop offset="0.8589" style="stop-color:#000000;stop-opacity:0.05"/>
      <stop offset="1" style="stop-color:#FFFFFF;stop-opacity:0.1"/>
    </linearGradient>
    <rect x="140.286" y="11.15" fill="url(#SVGID_27_)" width="0.422" height="64.416"/>
    <linearGradient id="SVGID_28_" gradientUnits="userSpaceOnUse" x1="76.5703" y1="10.9917" x2="76.5703" y2="75.4082">
      <stop offset="0" style="stop-color:#FFFFFF;stop-opacity:0.1"/>
      <stop offset="0.1595" style="stop-color:#000000;stop-opacity:0.1"/>
      <stop offset="0.5" style="stop-color:#FFFFFF;stop-opacity:0.3"/>
      <stop offset="0.8589" style="stop-color:#000000;stop-opacity:0.05"/>
      <stop offset="1" style="stop-color:#FFFFFF;stop-opacity:0.1"/>
    </linearGradient>
    <rect x="76.359" y="10.992" fill="url(#SVGID_28_)" width="0.421" height="64.416"/>
  </g>
  <g>
    <g>
      <linearGradient id="SVGID_29_" gradientUnits="userSpaceOnUse" x1="70.5483" y1="20.6108" x2="70.5483" y2="21.6494">
        <stop offset="0" style="stop-color:#221F1F;stop-opacity:0.2"/>
        <stop offset="1" style="stop-color:#221F1F;stop-opacity:0.15"/>
      </linearGradient>
      <path fill="url(#SVGID_29_)" d="M69.845,21.631c-0.01-0.048-0.016-0.099-0.016-0.149c0-0.397,0.322-0.72,0.719-0.72&#xD;&#xA;&#x9;&#x9;&#x9;&#x9;c0.397,0,0.72,0.322,0.72,0.72c0,0.047-0.005,0.094-0.014,0.138c0.049,0.007,0.102,0.01,0.149,0.018&#xD;&#xA;&#x9;&#x9;&#x9;&#x9;c0.009-0.051,0.016-0.103,0.016-0.156c0-0.481-0.39-0.871-0.871-0.871c-0.48,0-0.871,0.39-0.871,0.871&#xD;&#xA;&#x9;&#x9;&#x9;&#x9;c0,0.058,0.006,0.113,0.017,0.168C69.745,21.642,69.795,21.638,69.845,21.631z"/>
    </g>
    <g>
      <linearGradient id="SVGID_30_" gradientUnits="userSpaceOnUse" x1="70.5488" y1="34.7026" x2="70.5488" y2="35.7412">
        <stop offset="0" style="stop-color:#221F1F;stop-opacity:0.2"/>
        <stop offset="1" style="stop-color:#221F1F;stop-opacity:0.15"/>
      </linearGradient>
      <path fill="url(#SVGID_30_)" d="M69.846,35.723c-0.01-0.048-0.016-0.098-0.016-0.149c0-0.397,0.322-0.72,0.72-0.72&#xD;&#xA;&#x9;&#x9;&#x9;&#x9;c0.397,0,0.719,0.322,0.719,0.72c0,0.047-0.005,0.094-0.014,0.138c0.049,0.007,0.102,0.01,0.149,0.019&#xD;&#xA;&#x9;&#x9;&#x9;&#x9;c0.009-0.051,0.016-0.104,0.016-0.157c0-0.481-0.39-0.871-0.87-0.871c-0.481,0-0.871,0.39-0.871,0.871&#xD;&#xA;&#x9;&#x9;&#x9;&#x9;c0,0.058,0.006,0.114,0.017,0.168C69.745,35.733,69.795,35.73,69.846,35.723z"/>
    </g>
    <g>
      <linearGradient id="SVGID_31_" gradientUnits="userSpaceOnUse" x1="70.5479" y1="49.4146" x2="70.5479" y2="50.4531">
        <stop offset="0" style="stop-color:#221F1F;stop-opacity:0.2"/>
        <stop offset="1" style="stop-color:#221F1F;stop-opacity:0.15"/>
      </linearGradient>
      <path fill="url(#SVGID_31_)" d="M69.845,50.435c-0.01-0.048-0.016-0.099-0.016-0.149c0-0.397,0.322-0.72,0.72-0.72&#xD;&#xA;&#x9;&#x9;&#x9;&#x9;c0.397,0,0.719,0.322,0.719,0.72c0,0.047-0.005,0.094-0.014,0.138c0.049,0.007,0.102,0.01,0.149,0.018&#xD;&#xA;&#x9;&#x9;&#x9;&#x9;c0.009-0.051,0.016-0.103,0.016-0.156c0-0.481-0.39-0.871-0.87-0.871c-0.481,0-0.871,0.39-0.871,0.871&#xD;&#xA;&#x9;&#x9;&#x9;&#x9;c0,0.058,0.006,0.113,0.017,0.168C69.744,50.445,69.794,50.441,69.845,50.435z"/>
    </g>
    <g>
      <linearGradient id="SVGID_32_" gradientUnits="userSpaceOnUse" x1="70.5488" y1="63.5063" x2="70.5488" y2="64.5449">
        <stop offset="0" style="stop-color:#221F1F;stop-opacity:0.2"/>
        <stop offset="1" style="stop-color:#221F1F;stop-opacity:0.15"/>
      </linearGradient>
      <path fill="url(#SVGID_32_)" d="M69.845,64.526c-0.01-0.048-0.016-0.098-0.016-0.149c0-0.397,0.322-0.72,0.72-0.72&#xD;&#xA;&#x9;&#x9;&#x9;&#x9;s0.719,0.322,0.719,0.72c0,0.047-0.005,0.094-0.014,0.138c0.049,0.007,0.102,0.01,0.149,0.019&#xD;&#xA;&#x9;&#x9;&#x9;&#x9;c0.009-0.051,0.016-0.104,0.016-0.157c0-0.481-0.39-0.871-0.871-0.871c-0.481,0-0.871,0.39-0.871,0.871&#xD;&#xA;&#x9;&#x9;&#x9;&#x9;c0,0.058,0.006,0.114,0.017,0.168C69.745,64.537,69.795,64.534,69.845,64.526z"/>
    </g>
    <g>
      <linearGradient id="SVGID_33_" gradientUnits="userSpaceOnUse" x1="15.501" y1="20.6108" x2="15.501" y2="21.6494">
        <stop offset="0" style="stop-color:#221F1F;stop-opacity:0.2"/>
        <stop offset="1" style="stop-color:#221F1F;stop-opacity:0.15"/>
      </linearGradient>
      <path fill="url(#SVGID_33_)" d="M14.797,21.631c-0.01-0.048-0.016-0.099-0.016-0.149c0-0.397,0.322-0.72,0.72-0.72&#xD;&#xA;&#x9;&#x9;&#x9;&#x9;c0.397,0,0.719,0.322,0.719,0.72c0,0.047-0.005,0.094-0.014,0.138c0.049,0.007,0.102,0.01,0.149,0.018&#xD;&#xA;&#x9;&#x9;&#x9;&#x9;c0.009-0.051,0.016-0.103,0.016-0.156c0-0.481-0.39-0.871-0.87-0.871c-0.481,0-0.871,0.39-0.871,0.871&#xD;&#xA;&#x9;&#x9;&#x9;&#x9;c0,0.058,0.006,0.113,0.017,0.168C14.697,21.642,14.747,21.638,14.797,21.631z"/>
    </g>
    <g>
      <linearGradient id="SVGID_34_" gradientUnits="userSpaceOnUse" x1="15.5015" y1="34.7026" x2="15.5015" y2="35.7412">
        <stop offset="0" style="stop-color:#221F1F;stop-opacity:0.2"/>
        <stop offset="1" style="stop-color:#221F1F;stop-opacity:0.15"/>
      </linearGradient>
      <path fill="url(#SVGID_34_)" d="M14.798,35.723c-0.01-0.048-0.016-0.098-0.016-0.149c0-0.397,0.322-0.72,0.72-0.72&#xD;&#xA;&#x9;&#x9;&#x9;&#x9;s0.719,0.322,0.719,0.72c0,0.047-0.005,0.094-0.014,0.138c0.049,0.007,0.102,0.01,0.149,0.019&#xD;&#xA;&#x9;&#x9;&#x9;&#x9;c0.009-0.051,0.016-0.104,0.016-0.157c0-0.481-0.39-0.871-0.871-0.871c-0.481,0-0.871,0.39-0.871,0.871&#xD;&#xA;&#x9;&#x9;&#x9;&#x9;c0,0.058,0.006,0.114,0.017,0.168C14.697,35.733,14.748,35.73,14.798,35.723z"/>
    </g>
    <g>
      <linearGradient id="SVGID_35_" gradientUnits="userSpaceOnUse" x1="15.5005" y1="49.4146" x2="15.5005" y2="50.4531">
        <stop offset="0" style="stop-color:#221F1F;stop-opacity:0.2"/>
        <stop offset="1" style="stop-color:#221F1F;stop-opacity:0.15"/>
      </linearGradient>
      <path fill="url(#SVGID_35_)" d="M14.797,50.435c-0.01-0.048-0.016-0.099-0.016-0.149c0-0.397,0.322-0.72,0.72-0.72&#xD;&#xA;&#x9;&#x9;&#x9;&#x9;s0.719,0.322,0.719,0.72c0,0.047-0.005,0.094-0.014,0.138c0.049,0.007,0.102,0.01,0.149,0.018&#xD;&#xA;&#x9;&#x9;&#x9;&#x9;c0.009-0.051,0.016-0.103,0.016-0.156c0-0.481-0.39-0.871-0.871-0.871c-0.481,0-0.871,0.39-0.871,0.871&#xD;&#xA;&#x9;&#x9;&#x9;&#x9;c0,0.058,0.006,0.113,0.017,0.168C14.696,50.445,14.747,50.441,14.797,50.435z"/>
    </g>
    <g>
      <linearGradient id="SVGID_36_" gradientUnits="userSpaceOnUse" x1="15.501" y1="63.5063" x2="15.501" y2="64.5449">
        <stop offset="0" style="stop-color:#221F1F;stop-opacity:0.2"/>
        <stop offset="1" style="stop-color:#221F1F;stop-opacity:0.15"/>
      </linearGradient>
      <path fill="url(#SVGID_36_)" d="M14.797,64.526c-0.01-0.048-0.016-0.098-0.016-0.149c0-0.397,0.322-0.72,0.719-0.72&#xD;&#xA;&#x9;&#x9;&#x9;&#x9;s0.72,0.322,0.72,0.72c0,0.047-0.005,0.094-0.014,0.138c0.049,0.007,0.102,0.01,0.149,0.019c0.009-0.051,0.016-0.104,0.016-0.157&#xD;&#xA;&#x9;&#x9;&#x9;&#x9;c0-0.481-0.39-0.871-0.871-0.871c-0.481,0-0.871,0.39-0.871,0.871c0,0.058,0.006,0.114,0.017,0.168&#xD;&#xA;&#x9;&#x9;&#x9;&#x9;C14.697,64.537,14.748,64.534,14.797,64.526z"/>
    </g>
    <g>
      <linearGradient id="SVGID_37_" gradientUnits="userSpaceOnUse" x1="137.9419" y1="20.6108" x2="137.9419" y2="21.6494">
        <stop offset="0" style="stop-color:#221F1F;stop-opacity:0.2"/>
        <stop offset="1" style="stop-color:#221F1F;stop-opacity:0.15"/>
      </linearGradient>
      <path fill="url(#SVGID_37_)" d="M137.24,21.631c-0.011-0.048-0.017-0.099-0.017-0.149c0-0.397,0.321-0.72,0.72-0.72&#xD;&#xA;&#x9;&#x9;&#x9;&#x9;c0.396,0,0.719,0.322,0.719,0.72c0,0.047-0.005,0.094-0.014,0.138c0.049,0.007,0.102,0.01,0.149,0.018&#xD;&#xA;&#x9;&#x9;&#x9;&#x9;c0.009-0.051,0.016-0.103,0.016-0.156c0-0.481-0.39-0.871-0.87-0.871c-0.481,0-0.871,0.39-0.871,0.871&#xD;&#xA;&#x9;&#x9;&#x9;&#x9;c0,0.058,0.007,0.113,0.018,0.168C137.138,21.642,137.189,21.638,137.24,21.631z"/>
    </g>
    <g>
      <linearGradient id="SVGID_38_" gradientUnits="userSpaceOnUse" x1="137.9429" y1="34.7026" x2="137.9429" y2="35.7412">
        <stop offset="0" style="stop-color:#221F1F;stop-opacity:0.2"/>
        <stop offset="1" style="stop-color:#221F1F;stop-opacity:0.15"/>
      </linearGradient>
      <path fill="url(#SVGID_38_)" d="M137.24,35.723c-0.011-0.048-0.016-0.098-0.016-0.149c0-0.397,0.321-0.72,0.72-0.72&#xD;&#xA;&#x9;&#x9;&#x9;&#x9;c0.396,0,0.719,0.322,0.719,0.72c0,0.047-0.005,0.094-0.014,0.138c0.049,0.007,0.102,0.01,0.148,0.019&#xD;&#xA;&#x9;&#x9;&#x9;&#x9;c0.01-0.051,0.016-0.104,0.016-0.157c0-0.481-0.389-0.871-0.869-0.871c-0.482,0-0.871,0.39-0.871,0.871&#xD;&#xA;&#x9;&#x9;&#x9;&#x9;c0,0.058,0.006,0.114,0.017,0.168C137.139,35.733,137.19,35.73,137.24,35.723z"/>
    </g>
    <g>
      <linearGradient id="SVGID_39_" gradientUnits="userSpaceOnUse" x1="137.9419" y1="49.4146" x2="137.9419" y2="50.4531">
        <stop offset="0" style="stop-color:#221F1F;stop-opacity:0.2"/>
        <stop offset="1" style="stop-color:#221F1F;stop-opacity:0.15"/>
      </linearGradient>
      <path fill="url(#SVGID_39_)" d="M137.239,50.435c-0.01-0.048-0.017-0.099-0.017-0.149c0-0.397,0.322-0.72,0.72-0.72&#xD;&#xA;&#x9;&#x9;&#x9;&#x9;s0.72,0.322,0.72,0.72c0,0.047-0.005,0.094-0.015,0.138c0.05,0.007,0.102,0.01,0.15,0.018c0.009-0.051,0.016-0.103,0.016-0.156&#xD;&#xA;&#x9;&#x9;&#x9;&#x9;c0-0.481-0.391-0.871-0.871-0.871s-0.871,0.39-0.871,0.871c0,0.058,0.007,0.113,0.018,0.168&#xD;&#xA;&#x9;&#x9;&#x9;&#x9;C137.138,50.445,137.188,50.441,137.239,50.435z"/>
    </g>
    <g>
      <linearGradient id="SVGID_40_" gradientUnits="userSpaceOnUse" x1="137.9419" y1="63.5063" x2="137.9419" y2="64.5449">
        <stop offset="0" style="stop-color:#221F1F;stop-opacity:0.2"/>
        <stop offset="1" style="stop-color:#221F1F;stop-opacity:0.15"/>
      </linearGradient>
      <path fill="url(#SVGID_40_)" d="M137.24,64.526c-0.011-0.048-0.017-0.098-0.017-0.149c0-0.397,0.322-0.72,0.72-0.72&#xD;&#xA;&#x9;&#x9;&#x9;&#x9;s0.719,0.322,0.719,0.72c0,0.047-0.005,0.094-0.014,0.138c0.05,0.007,0.102,0.01,0.149,0.019c0.01-0.051,0.016-0.104,0.016-0.157&#xD;&#xA;&#x9;&#x9;&#x9;&#x9;c0-0.481-0.39-0.871-0.87-0.871c-0.481,0-0.871,0.39-0.871,0.871c0,0.058,0.007,0.114,0.018,0.168&#xD;&#xA;&#x9;&#x9;&#x9;&#x9;C137.138,64.537,137.189,64.534,137.24,64.526z"/>
    </g>
    <g>
      <linearGradient id="SVGID_41_" gradientUnits="userSpaceOnUse" x1="82.8945" y1="20.6108" x2="82.8945" y2="21.6494">
        <stop offset="0" style="stop-color:#221F1F;stop-opacity:0.2"/>
        <stop offset="1" style="stop-color:#221F1F;stop-opacity:0.15"/>
      </linearGradient>
      <path fill="url(#SVGID_41_)" d="M82.191,21.631c-0.01-0.048-0.016-0.099-0.016-0.149c0-0.397,0.322-0.72,0.719-0.72&#xD;&#xA;&#x9;&#x9;&#x9;&#x9;c0.397,0,0.72,0.322,0.72,0.72c0,0.047-0.005,0.094-0.014,0.138c0.049,0.007,0.102,0.01,0.149,0.018&#xD;&#xA;&#x9;&#x9;&#x9;&#x9;c0.009-0.051,0.016-0.103,0.016-0.156c0-0.481-0.39-0.871-0.871-0.871s-0.871,0.39-0.871,0.871c0,0.058,0.006,0.113,0.017,0.168&#xD;&#xA;&#x9;&#x9;&#x9;&#x9;C82.091,21.642,82.141,21.638,82.191,21.631z"/>
    </g>
    <g>
      <linearGradient id="SVGID_42_" gradientUnits="userSpaceOnUse" x1="82.895" y1="34.7026" x2="82.895" y2="35.7412">
        <stop offset="0" style="stop-color:#221F1F;stop-opacity:0.2"/>
        <stop offset="1" style="stop-color:#221F1F;stop-opacity:0.15"/>
      </linearGradient>
      <path fill="url(#SVGID_42_)" d="M82.192,35.723c-0.01-0.048-0.016-0.098-0.016-0.149c0-0.397,0.322-0.72,0.719-0.72&#xD;&#xA;&#x9;&#x9;&#x9;&#x9;c0.397,0,0.72,0.322,0.72,0.72c0,0.047-0.005,0.094-0.014,0.138c0.049,0.007,0.102,0.01,0.149,0.019&#xD;&#xA;&#x9;&#x9;&#x9;&#x9;c0.009-0.051,0.016-0.104,0.016-0.157c0-0.481-0.39-0.871-0.871-0.871c-0.48,0-0.871,0.39-0.871,0.871&#xD;&#xA;&#x9;&#x9;&#x9;&#x9;c0,0.058,0.006,0.114,0.017,0.168C82.091,35.733,82.142,35.73,82.192,35.723z"/>
    </g>
    <g>
      <linearGradient id="SVGID_43_" gradientUnits="userSpaceOnUse" x1="82.894" y1="49.4146" x2="82.894" y2="50.4531">
        <stop offset="0" style="stop-color:#221F1F;stop-opacity:0.2"/>
        <stop offset="1" style="stop-color:#221F1F;stop-opacity:0.15"/>
      </linearGradient>
      <path fill="url(#SVGID_43_)" d="M82.191,50.435c-0.01-0.048-0.016-0.099-0.016-0.149c0-0.397,0.322-0.72,0.719-0.72&#xD;&#xA;&#x9;&#x9;&#x9;&#x9;c0.397,0,0.72,0.322,0.72,0.72c0,0.047-0.005,0.094-0.014,0.138c0.049,0.007,0.102,0.01,0.149,0.018&#xD;&#xA;&#x9;&#x9;&#x9;&#x9;c0.009-0.051,0.016-0.103,0.016-0.156c0-0.481-0.39-0.871-0.871-0.871c-0.48,0-0.871,0.39-0.871,0.871&#xD;&#xA;&#x9;&#x9;&#x9;&#x9;c0,0.058,0.006,0.113,0.017,0.168C82.09,50.445,82.141,50.441,82.191,50.435z"/>
    </g>
    <g>
      <linearGradient id="SVGID_44_" gradientUnits="userSpaceOnUse" x1="82.8945" y1="63.5063" x2="82.8945" y2="64.5449">
        <stop offset="0" style="stop-color:#221F1F;stop-opacity:0.2"/>
        <stop offset="1" style="stop-color:#221F1F;stop-opacity:0.15"/>
      </linearGradient>
      <path fill="url(#SVGID_44_)" d="M82.191,64.526c-0.01-0.048-0.016-0.098-0.016-0.149c0-0.397,0.322-0.72,0.72-0.72&#xD;&#xA;&#x9;&#x9;&#x9;&#x9;c0.397,0,0.719,0.322,0.719,0.72c0,0.047-0.005,0.094-0.014,0.138c0.049,0.007,0.102,0.01,0.149,0.019&#xD;&#xA;&#x9;&#x9;&#x9;&#x9;c0.009-0.051,0.016-0.104,0.016-0.157c0-0.481-0.39-0.871-0.87-0.871c-0.481,0-0.871,0.39-0.871,0.871&#xD;&#xA;&#x9;&#x9;&#x9;&#x9;c0,0.058,0.006,0.114,0.017,0.168C82.091,64.537,82.141,64.534,82.191,64.526z"/>
    </g>
  </g>
  <g>
    <g>
      <linearGradient id="SVGID_45_" gradientUnits="userSpaceOnUse" x1="70.5488" y1="21.6196" x2="70.5488" y2="22.333">
        <stop offset="0" style="stop-color:#FFFFFF;stop-opacity:0"/>
        <stop offset="1" style="stop-color:#FFFFFF;stop-opacity:0.35"/>
      </linearGradient>
      <path fill="url(#SVGID_45_)" d="M71.237,21.681c-0.2,0.682-1.26,0.675-1.392-0.05c-0.05,0.007-0.101,0.011-0.15,0.019&#xD;&#xA;&#x9;&#x9;&#x9;&#x9;c0.18,0.917,1.541,0.909,1.708-0.012c-0.048-0.008-0.1-0.011-0.149-0.018C71.25,21.641,71.243,21.66,71.237,21.681&#xD;&#xA;&#x9;&#x9;&#x9;&#x9;C71.23,21.703,71.243,21.66,71.237,21.681z"/>
    </g>
    <g>
      <linearGradient id="SVGID_46_" gradientUnits="userSpaceOnUse" x1="70.5498" y1="35.7114" x2="70.5498" y2="36.4248">
        <stop offset="0" style="stop-color:#FFFFFF;stop-opacity:0"/>
        <stop offset="1" style="stop-color:#FFFFFF;stop-opacity:0.35"/>
      </linearGradient>
      <path fill="url(#SVGID_46_)" d="M71.237,35.772c-0.2,0.682-1.26,0.676-1.392-0.05c-0.05,0.007-0.101,0.011-0.15,0.019&#xD;&#xA;&#x9;&#x9;&#x9;&#x9;c0.18,0.918,1.541,0.909,1.708-0.011c-0.048-0.009-0.1-0.012-0.149-0.019C71.25,35.732,71.243,35.752,71.237,35.772&#xD;&#xA;&#x9;&#x9;&#x9;&#x9;C71.23,35.795,71.243,35.752,71.237,35.772z"/>
    </g>
    <g>
      <linearGradient id="SVGID_47_" gradientUnits="userSpaceOnUse" x1="70.5488" y1="50.4233" x2="70.5488" y2="51.1367">
        <stop offset="0" style="stop-color:#FFFFFF;stop-opacity:0"/>
        <stop offset="1" style="stop-color:#FFFFFF;stop-opacity:0.35"/>
      </linearGradient>
      <path fill="url(#SVGID_47_)" d="M71.236,50.484c-0.2,0.682-1.26,0.675-1.392-0.05c-0.05,0.007-0.101,0.01-0.15,0.019&#xD;&#xA;&#x9;&#x9;&#x9;&#x9;c0.18,0.917,1.541,0.909,1.708-0.012c-0.047-0.008-0.1-0.011-0.149-0.018C71.25,50.444,71.242,50.464,71.236,50.484&#xD;&#xA;&#x9;&#x9;&#x9;&#x9;C71.229,50.507,71.242,50.464,71.236,50.484z"/>
    </g>
    <g>
      <linearGradient id="SVGID_48_" gradientUnits="userSpaceOnUse" x1="70.5488" y1="64.5151" x2="70.5488" y2="65.2285">
        <stop offset="0" style="stop-color:#FFFFFF;stop-opacity:0"/>
        <stop offset="1" style="stop-color:#FFFFFF;stop-opacity:0.35"/>
      </linearGradient>
      <path fill="url(#SVGID_48_)" d="M71.237,64.576c-0.2,0.682-1.26,0.676-1.392-0.05c-0.05,0.007-0.101,0.011-0.15,0.019&#xD;&#xA;&#x9;&#x9;&#x9;&#x9;c0.18,0.918,1.541,0.909,1.708-0.011c-0.047-0.009-0.1-0.012-0.149-0.019C71.25,64.536,71.243,64.556,71.237,64.576&#xD;&#xA;&#x9;&#x9;&#x9;&#x9;C71.23,64.599,71.243,64.556,71.237,64.576z"/>
    </g>
    <g>
      <linearGradient id="SVGID_49_" gradientUnits="userSpaceOnUse" x1="15.501" y1="21.6196" x2="15.501" y2="22.333">
        <stop offset="0" style="stop-color:#FFFFFF;stop-opacity:0"/>
        <stop offset="1" style="stop-color:#FFFFFF;stop-opacity:0.35"/>
      </linearGradient>
      <path fill="url(#SVGID_49_)" d="M16.189,21.681c-0.2,0.682-1.26,0.675-1.392-0.05c-0.05,0.007-0.101,0.011-0.15,0.019&#xD;&#xA;&#x9;&#x9;&#x9;&#x9;c0.18,0.917,1.541,0.909,1.708-0.012c-0.047-0.008-0.1-0.011-0.149-0.018C16.202,21.641,16.195,21.66,16.189,21.681&#xD;&#xA;&#x9;&#x9;&#x9;&#x9;C16.182,21.703,16.195,21.66,16.189,21.681z"/>
    </g>
    <g>
      <linearGradient id="SVGID_50_" gradientUnits="userSpaceOnUse" x1="15.502" y1="35.7114" x2="15.502" y2="36.4248">
        <stop offset="0" style="stop-color:#FFFFFF;stop-opacity:0"/>
        <stop offset="1" style="stop-color:#FFFFFF;stop-opacity:0.35"/>
      </linearGradient>
      <path fill="url(#SVGID_50_)" d="M16.189,35.772c-0.2,0.682-1.26,0.676-1.392-0.05c-0.05,0.007-0.101,0.011-0.15,0.019&#xD;&#xA;&#x9;&#x9;&#x9;&#x9;c0.18,0.918,1.541,0.909,1.708-0.011c-0.047-0.009-0.1-0.012-0.149-0.019C16.203,35.732,16.195,35.752,16.189,35.772&#xD;&#xA;&#x9;&#x9;&#x9;&#x9;C16.183,35.795,16.195,35.752,16.189,35.772z"/>
    </g>
    <g>
      <linearGradient id="SVGID_51_" gradientUnits="userSpaceOnUse" x1="15.501" y1="50.4233" x2="15.501" y2="51.1367">
        <stop offset="0" style="stop-color:#FFFFFF;stop-opacity:0"/>
        <stop offset="1" style="stop-color:#FFFFFF;stop-opacity:0.35"/>
      </linearGradient>
      <path fill="url(#SVGID_51_)" d="M16.188,50.484c-0.2,0.682-1.26,0.675-1.392-0.05c-0.05,0.007-0.101,0.01-0.15,0.019&#xD;&#xA;&#x9;&#x9;&#x9;&#x9;c0.18,0.917,1.541,0.909,1.708-0.012c-0.047-0.008-0.1-0.011-0.149-0.018C16.202,50.444,16.194,50.464,16.188,50.484&#xD;&#xA;&#x9;&#x9;&#x9;&#x9;C16.182,50.507,16.194,50.464,16.188,50.484z"/>
    </g>
    <g>
      <linearGradient id="SVGID_52_" gradientUnits="userSpaceOnUse" x1="15.5015" y1="64.5151" x2="15.5015" y2="65.2285">
        <stop offset="0" style="stop-color:#FFFFFF;stop-opacity:0"/>
        <stop offset="1" style="stop-color:#FFFFFF;stop-opacity:0.35"/>
      </linearGradient>
      <path fill="url(#SVGID_52_)" d="M16.189,64.576c-0.2,0.682-1.26,0.676-1.392-0.05c-0.05,0.007-0.101,0.011-0.15,0.019&#xD;&#xA;&#x9;&#x9;&#x9;&#x9;c0.18,0.918,1.541,0.909,1.709-0.011c-0.048-0.009-0.1-0.012-0.149-0.019C16.203,64.536,16.195,64.556,16.189,64.576&#xD;&#xA;&#x9;&#x9;&#x9;&#x9;C16.183,64.599,16.195,64.556,16.189,64.576z"/>
    </g>
    <g>
      <linearGradient id="SVGID_53_" gradientUnits="userSpaceOnUse" x1="137.9438" y1="21.6196" x2="137.9438" y2="22.333">
        <stop offset="0" style="stop-color:#FFFFFF;stop-opacity:0"/>
        <stop offset="1" style="stop-color:#FFFFFF;stop-opacity:0.35"/>
      </linearGradient>
      <path fill="url(#SVGID_53_)" d="M138.63,21.681c-0.199,0.682-1.259,0.675-1.391-0.05c-0.051,0.007-0.102,0.011-0.15,0.019&#xD;&#xA;&#x9;&#x9;&#x9;&#x9;c0.18,0.917,1.54,0.909,1.708-0.012c-0.048-0.008-0.101-0.011-0.149-0.018C138.644,21.641,138.636,21.66,138.63,21.681&#xD;&#xA;&#x9;&#x9;&#x9;&#x9;C138.625,21.703,138.636,21.66,138.63,21.681z"/>
    </g>
    <g>
      <linearGradient id="SVGID_54_" gradientUnits="userSpaceOnUse" x1="137.9438" y1="35.7114" x2="137.9438" y2="36.4248">
        <stop offset="0" style="stop-color:#FFFFFF;stop-opacity:0"/>
        <stop offset="1" style="stop-color:#FFFFFF;stop-opacity:0.35"/>
      </linearGradient>
      <path fill="url(#SVGID_54_)" d="M138.631,35.772c-0.2,0.682-1.26,0.676-1.392-0.05c-0.05,0.007-0.101,0.011-0.15,0.019&#xD;&#xA;&#x9;&#x9;&#x9;&#x9;c0.181,0.918,1.54,0.909,1.708-0.011c-0.047-0.009-0.1-0.012-0.148-0.019C138.644,35.732,138.637,35.752,138.631,35.772&#xD;&#xA;&#x9;&#x9;&#x9;&#x9;C138.625,35.795,138.637,35.752,138.631,35.772z"/>
    </g>
    <g>
      <linearGradient id="SVGID_55_" gradientUnits="userSpaceOnUse" x1="137.9429" y1="50.4233" x2="137.9429" y2="51.1367">
        <stop offset="0" style="stop-color:#FFFFFF;stop-opacity:0"/>
        <stop offset="1" style="stop-color:#FFFFFF;stop-opacity:0.35"/>
      </linearGradient>
      <path fill="url(#SVGID_55_)" d="M138.63,50.484c-0.2,0.682-1.26,0.675-1.392-0.05c-0.051,0.007-0.101,0.01-0.15,0.019&#xD;&#xA;&#x9;&#x9;&#x9;&#x9;c0.18,0.917,1.54,0.909,1.709-0.012c-0.049-0.008-0.101-0.011-0.15-0.018C138.643,50.444,138.635,50.464,138.63,50.484&#xD;&#xA;&#x9;&#x9;&#x9;&#x9;C138.624,50.507,138.635,50.464,138.63,50.484z"/>
    </g>
    <g>
      <linearGradient id="SVGID_56_" gradientUnits="userSpaceOnUse" x1="137.9438" y1="64.5151" x2="137.9438" y2="65.2285">
        <stop offset="0" style="stop-color:#FFFFFF;stop-opacity:0"/>
        <stop offset="1" style="stop-color:#FFFFFF;stop-opacity:0.35"/>
      </linearGradient>
      <path fill="url(#SVGID_56_)" d="M138.631,64.576c-0.2,0.682-1.26,0.676-1.392-0.05c-0.051,0.007-0.102,0.011-0.15,0.019&#xD;&#xA;&#x9;&#x9;&#x9;&#x9;c0.18,0.918,1.54,0.909,1.708-0.011c-0.048-0.009-0.1-0.012-0.149-0.019C138.644,64.536,138.636,64.556,138.631,64.576&#xD;&#xA;&#x9;&#x9;&#x9;&#x9;C138.625,64.599,138.636,64.556,138.631,64.576z"/>
    </g>
    <g>
      <linearGradient id="SVGID_57_" gradientUnits="userSpaceOnUse" x1="82.8955" y1="21.6196" x2="82.8955" y2="22.333">
        <stop offset="0" style="stop-color:#FFFFFF;stop-opacity:0"/>
        <stop offset="1" style="stop-color:#FFFFFF;stop-opacity:0.35"/>
      </linearGradient>
      <path fill="url(#SVGID_57_)" d="M83.583,21.681c-0.2,0.682-1.259,0.675-1.391-0.05c-0.05,0.007-0.101,0.011-0.15,0.019&#xD;&#xA;&#x9;&#x9;&#x9;&#x9;c0.18,0.917,1.541,0.909,1.708-0.012c-0.048-0.008-0.1-0.011-0.149-0.018C83.596,21.641,83.588,21.66,83.583,21.681&#xD;&#xA;&#x9;&#x9;&#x9;&#x9;C83.576,21.703,83.588,21.66,83.583,21.681z"/>
    </g>
    <g>
      <linearGradient id="SVGID_58_" gradientUnits="userSpaceOnUse" x1="82.8955" y1="35.7114" x2="82.8955" y2="36.4248">
        <stop offset="0" style="stop-color:#FFFFFF;stop-opacity:0"/>
        <stop offset="1" style="stop-color:#FFFFFF;stop-opacity:0.35"/>
      </linearGradient>
      <path fill="url(#SVGID_58_)" d="M83.583,35.772c-0.2,0.682-1.26,0.676-1.392-0.05c-0.05,0.007-0.101,0.011-0.15,0.019&#xD;&#xA;&#x9;&#x9;&#x9;&#x9;c0.18,0.918,1.541,0.909,1.708-0.011c-0.048-0.009-0.1-0.012-0.149-0.019C83.597,35.732,83.589,35.752,83.583,35.772&#xD;&#xA;&#x9;&#x9;&#x9;&#x9;C83.577,35.795,83.589,35.752,83.583,35.772z"/>
    </g>
    <g>
      <linearGradient id="SVGID_59_" gradientUnits="userSpaceOnUse" x1="82.8945" y1="50.4233" x2="82.8945" y2="51.1367">
        <stop offset="0" style="stop-color:#FFFFFF;stop-opacity:0"/>
        <stop offset="1" style="stop-color:#FFFFFF;stop-opacity:0.35"/>
      </linearGradient>
      <path fill="url(#SVGID_59_)" d="M83.583,50.484c-0.2,0.682-1.26,0.675-1.392-0.05c-0.05,0.007-0.101,0.01-0.15,0.019&#xD;&#xA;&#x9;&#x9;&#x9;&#x9;c0.18,0.917,1.541,0.909,1.708-0.012c-0.048-0.008-0.1-0.011-0.149-0.018C83.596,50.444,83.588,50.464,83.583,50.484&#xD;&#xA;&#x9;&#x9;&#x9;&#x9;C83.576,50.507,83.588,50.464,83.583,50.484z"/>
    </g>
    <g>
      <linearGradient id="SVGID_60_" gradientUnits="userSpaceOnUse" x1="82.8955" y1="64.5151" x2="82.8955" y2="65.2285">
        <stop offset="0" style="stop-color:#FFFFFF;stop-opacity:0"/>
        <stop offset="1" style="stop-color:#FFFFFF;stop-opacity:0.35"/>
      </linearGradient>
      <path fill="url(#SVGID_60_)" d="M83.583,64.576c-0.2,0.682-1.26,0.676-1.392-0.05c-0.05,0.007-0.101,0.011-0.15,0.019&#xD;&#xA;&#x9;&#x9;&#x9;&#x9;c0.18,0.918,1.541,0.909,1.708-0.011c-0.047-0.009-0.1-0.012-0.149-0.019C83.596,64.536,83.589,64.556,83.583,64.576&#xD;&#xA;&#x9;&#x9;&#x9;&#x9;C83.576,64.599,83.589,64.556,83.583,64.576z"/>
    </g>
  </g>
  <linearGradient id="SVGID_61_" gradientUnits="userSpaceOnUse" x1="6.9043" y1="43.2329" x2="146.2378" y2="43.2329">
    <stop offset="0" style="stop-color:#000000;stop-opacity:0.3"/>
    <stop offset="0.1119" style="stop-color:#050505;stop-opacity:0.3"/>
    <stop offset="0.6508" style="stop-color:#1B1819;stop-opacity:0.3"/>
    <stop offset="1" style="stop-color:#231F20;stop-opacity:0.3"/>
  </linearGradient>
  <path fill="url(#SVGID_61_)" d="M143.558,6.695H9.584c-1.48,0-2.68,1.2-2.68,2.68V77.09c0,1.48,1.2,2.68,2.68,2.68h133.974&#xD;&#xA;&#x9;&#x9;c1.48,0,2.68-1.2,2.68-2.68V9.375C146.238,7.895,145.039,6.695,143.558,6.695z M141.7,72.938c0,1.473-1.286,2.678-2.858,2.678&#xD;&#xA;&#x9;&#x9;H14.356c-1.572,0-2.858-1.205-2.858-2.678V13.589c0-1.473,1.286-2.678,2.858-2.678h124.485c1.572,0,2.858,1.205,2.858,2.678V72.938&#xD;&#xA;&#x9;&#x9;z"/>
  <linearGradient id="SVGID_62_" gradientUnits="userSpaceOnUse" x1="12.9961" y1="43.2622" x2="72.4526" y2="43.2622">
    <stop offset="0" style="stop-color:#000000;stop-opacity:0.05"/>
    <stop offset="0.0513" style="stop-color:#0F0D0D;stop-opacity:0.0449"/>
    <stop offset="0.1223" style="stop-color:#1A1718;stop-opacity:0.0378"/>
    <stop offset="0.2223" style="stop-color:#211D1E;stop-opacity:0.0278"/>
    <stop offset="0.5" style="stop-color:#231F20;stop-opacity:0"/>
    <stop offset="0.7777" style="stop-color:#211D1E;stop-opacity:0.0278"/>
    <stop offset="0.8777" style="stop-color:#1A1718;stop-opacity:0.0378"/>
    <stop offset="0.9487" style="stop-color:#0F0D0D;stop-opacity:0.0449"/>
    <stop offset="1" style="stop-color:#000000;stop-opacity:0.05"/>
  </linearGradient>
  <rect x="12.996" y="15.114" fill="url(#SVGID_62_)" width="59.457" height="56.297"/>
  <linearGradient id="SVGID_63_" gradientUnits="userSpaceOnUse" x1="72.8125" y1="43.0537" x2="80.2246" y2="43.0537">
    <stop offset="0" style="stop-color:#000000;stop-opacity:0.05"/>
    <stop offset="0.1899" style="stop-color:#0A0909;stop-opacity:0.0386"/>
    <stop offset="0.5" style="stop-color:#231F20;stop-opacity:0.02"/>
    <stop offset="1" style="stop-color:#000000;stop-opacity:0.05"/>
  </linearGradient>
  <rect x="72.813" y="14.905" fill="url(#SVGID_63_)" width="7.412" height="56.297"/>
  <linearGradient id="SVGID_64_" gradientUnits="userSpaceOnUse" x1="76.7808" y1="14.9053" x2="76.7808" y2="71.2021">
    <stop offset="0" style="stop-color:#000000;stop-opacity:0.05"/>
    <stop offset="0.0513" style="stop-color:#0F0D0D;stop-opacity:0.0469"/>
    <stop offset="0.1223" style="stop-color:#1A1718;stop-opacity:0.0427"/>
    <stop offset="0.2223" style="stop-color:#211D1E;stop-opacity:0.0367"/>
    <stop offset="0.5" style="stop-color:#231F20;stop-opacity:0.02"/>
    <stop offset="0.7777" style="stop-color:#211D1E;stop-opacity:0.0367"/>
    <stop offset="0.8777" style="stop-color:#1A1718;stop-opacity:0.0427"/>
    <stop offset="0.9487" style="stop-color:#0F0D0D;stop-opacity:0.0469"/>
    <stop offset="1" style="stop-color:#000000;stop-opacity:0.05"/>
  </linearGradient>
  <rect x="73.075" y="14.905" fill="url(#SVGID_64_)" width="7.412" height="56.297"/>
  <g>
    <linearGradient id="SVGID_65_" gradientUnits="userSpaceOnUse" x1="76.5713" y1="71.4722" x2="76.5713" y2="79.2129">
      <stop offset="0" style="stop-color:#000000;stop-opacity:0.05"/>
      <stop offset="0.2641" style="stop-color:#100F0F;stop-opacity:0.0342"/>
      <stop offset="0.5" style="stop-color:#231F20;stop-opacity:0.02"/>
      <stop offset="1" style="stop-color:#000000;stop-opacity:0.05"/>
    </linearGradient>
    <rect x="72.865" y="71.472" fill="url(#SVGID_65_)" width="7.413" height="7.741"/>
    <linearGradient id="SVGID_66_" gradientUnits="userSpaceOnUse" x1="76.5713" y1="7.0313" x2="76.5713" y2="14.772">
      <stop offset="0" style="stop-color:#000000;stop-opacity:0.05"/>
      <stop offset="0.2641" style="stop-color:#100F0F;stop-opacity:0.0342"/>
      <stop offset="0.5" style="stop-color:#231F20;stop-opacity:0.02"/>
      <stop offset="1" style="stop-color:#000000;stop-opacity:0.05"/>
    </linearGradient>
    <rect x="72.865" y="7.031" fill="url(#SVGID_66_)" width="7.413" height="7.741"/>
  </g>
</svg>