<svg version="1.2" baseProfile="tiny" id="EdgeSVG_9fcII" x="0px" y="0px" width="152px" height="152px" viewBox="0 0 152 152" xmlns:xlink="http://www.w3.org/1999/xlink" xmlns="http://www.w3.org/2000/svg">
  <linearGradient id="SVGID_2_" gradientUnits="userSpaceOnUse" x1="24.4805" y1="7.0078" x2="12.582" y2="7.0078">
    <stop offset="0" style="stop-color:#000000;stop-opacity:0.15"/>
    <stop offset="0.0688" style="stop-color:#000000;stop-opacity:0.1362"/>
    <stop offset="0.5" style="stop-color:#000000;stop-opacity:0.05"/>
    <stop offset="0.9312" style="stop-color:#000000;stop-opacity:0.1362"/>
    <stop offset="1" style="stop-color:#000000;stop-opacity:0.15"/>
  </linearGradient>
  <rect x="12.582" y="1.493" fill-rule="evenodd" fill="url(#SVGID_2_)" width="11.898" height="11.029"/>
  <linearGradient id="SVGID_3_" gradientUnits="userSpaceOnUse" x1="12.582" y1="75.9868" x2="1.4932" y2="75.9868">
    <stop offset="0" style="stop-color:#000000;stop-opacity:0.15"/>
    <stop offset="0.0055" style="stop-color:#050505;stop-opacity:0.1444"/>
    <stop offset="0.0116" style="stop-color:#121212;stop-opacity:0.1382"/>
    <stop offset="0.018" style="stop-color:#282828;stop-opacity:0.1317"/>
    <stop offset="0.0245" style="stop-color:#474747;stop-opacity:0.125"/>
    <stop offset="0.0312" style="stop-color:#6F6F6F;stop-opacity:0.1182"/>
    <stop offset="0.038" style="stop-color:#9F9F9F;stop-opacity:0.1112"/>
    <stop offset="0.0448" style="stop-color:#D8D8D8;stop-opacity:0.1043"/>
    <stop offset="0.0491" style="stop-color:#FFFFFF;stop-opacity:0.1"/>
    <stop offset="0.9571" style="stop-color:#FFFFFF;stop-opacity:0.1"/>
    <stop offset="0.9816" style="stop-color:#000000;stop-opacity:0.15"/>
  </linearGradient>
  <rect x="1.493" y="1.493" fill-rule="evenodd" fill="url(#SVGID_3_)" width="11.089" height="148.987"/>
  <linearGradient id="SVGID_4_" gradientUnits="userSpaceOnUse" x1="47.4688" y1="7.0078" x2="35.5708" y2="7.0078">
    <stop offset="0" style="stop-color:#000000;stop-opacity:0.15"/>
    <stop offset="0.0688" style="stop-color:#000000;stop-opacity:0.1362"/>
    <stop offset="0.5" style="stop-color:#000000;stop-opacity:0.05"/>
    <stop offset="0.9312" style="stop-color:#000000;stop-opacity:0.1362"/>
    <stop offset="1" style="stop-color:#000000;stop-opacity:0.15"/>
  </linearGradient>
  <rect x="35.571" y="1.493" fill-rule="evenodd" fill="url(#SVGID_4_)" width="11.898" height="11.029"/>
  <linearGradient id="SVGID_5_" gradientUnits="userSpaceOnUse" x1="35.5708" y1="75.9868" x2="24.4819" y2="75.9868">
    <stop offset="0" style="stop-color:#000000;stop-opacity:0.15"/>
    <stop offset="0.0055" style="stop-color:#050505;stop-opacity:0.1444"/>
    <stop offset="0.0116" style="stop-color:#121212;stop-opacity:0.1382"/>
    <stop offset="0.018" style="stop-color:#282828;stop-opacity:0.1317"/>
    <stop offset="0.0245" style="stop-color:#474747;stop-opacity:0.125"/>
    <stop offset="0.0312" style="stop-color:#6F6F6F;stop-opacity:0.1182"/>
    <stop offset="0.038" style="stop-color:#9F9F9F;stop-opacity:0.1112"/>
    <stop offset="0.0448" style="stop-color:#D8D8D8;stop-opacity:0.1043"/>
    <stop offset="0.0491" style="stop-color:#FFFFFF;stop-opacity:0.1"/>
    <stop offset="0.9571" style="stop-color:#FFFFFF;stop-opacity:0.1"/>
    <stop offset="0.9816" style="stop-color:#000000;stop-opacity:0.15"/>
  </linearGradient>
  <rect x="24.482" y="1.493" fill-rule="evenodd" fill="url(#SVGID_5_)" width="11.089" height="148.987"/>
  <linearGradient id="SVGID_6_" gradientUnits="userSpaceOnUse" x1="70.457" y1="7.0078" x2="58.5591" y2="7.0078">
    <stop offset="0" style="stop-color:#000000;stop-opacity:0.15"/>
    <stop offset="0.0688" style="stop-color:#000000;stop-opacity:0.1362"/>
    <stop offset="0.5" style="stop-color:#000000;stop-opacity:0.05"/>
    <stop offset="0.9312" style="stop-color:#000000;stop-opacity:0.1362"/>
    <stop offset="1" style="stop-color:#000000;stop-opacity:0.15"/>
  </linearGradient>
  <rect x="58.559" y="1.493" fill-rule="evenodd" fill="url(#SVGID_6_)" width="11.898" height="11.029"/>
  <linearGradient id="SVGID_7_" gradientUnits="userSpaceOnUse" x1="58.5591" y1="75.9868" x2="47.4702" y2="75.9868">
    <stop offset="0" style="stop-color:#000000;stop-opacity:0.15"/>
    <stop offset="0.0055" style="stop-color:#050505;stop-opacity:0.1444"/>
    <stop offset="0.0116" style="stop-color:#121212;stop-opacity:0.1382"/>
    <stop offset="0.018" style="stop-color:#282828;stop-opacity:0.1317"/>
    <stop offset="0.0245" style="stop-color:#474747;stop-opacity:0.125"/>
    <stop offset="0.0312" style="stop-color:#6F6F6F;stop-opacity:0.1182"/>
    <stop offset="0.038" style="stop-color:#9F9F9F;stop-opacity:0.1112"/>
    <stop offset="0.0448" style="stop-color:#D8D8D8;stop-opacity:0.1043"/>
    <stop offset="0.0491" style="stop-color:#FFFFFF;stop-opacity:0.1"/>
    <stop offset="0.9571" style="stop-color:#FFFFFF;stop-opacity:0.1"/>
    <stop offset="0.9816" style="stop-color:#000000;stop-opacity:0.15"/>
  </linearGradient>
  <rect x="47.47" y="1.493" fill-rule="evenodd" fill="url(#SVGID_7_)" width="11.089" height="148.987"/>
  <linearGradient id="SVGID_8_" gradientUnits="userSpaceOnUse" x1="93.4443" y1="7.0078" x2="81.5483" y2="7.0078">
    <stop offset="0" style="stop-color:#000000;stop-opacity:0.15"/>
    <stop offset="0.0688" style="stop-color:#000000;stop-opacity:0.1362"/>
    <stop offset="0.5" style="stop-color:#000000;stop-opacity:0.05"/>
    <stop offset="0.9312" style="stop-color:#000000;stop-opacity:0.1362"/>
    <stop offset="1" style="stop-color:#000000;stop-opacity:0.15"/>
  </linearGradient>
  <rect x="81.548" y="1.493" fill-rule="evenodd" fill="url(#SVGID_8_)" width="11.896" height="11.029"/>
  <linearGradient id="SVGID_9_" gradientUnits="userSpaceOnUse" x1="81.5479" y1="75.9868" x2="70.4585" y2="75.9868">
    <stop offset="0" style="stop-color:#000000;stop-opacity:0.15"/>
    <stop offset="0.0055" style="stop-color:#050505;stop-opacity:0.1444"/>
    <stop offset="0.0116" style="stop-color:#121212;stop-opacity:0.1382"/>
    <stop offset="0.018" style="stop-color:#282828;stop-opacity:0.1317"/>
    <stop offset="0.0245" style="stop-color:#474747;stop-opacity:0.125"/>
    <stop offset="0.0312" style="stop-color:#6F6F6F;stop-opacity:0.1182"/>
    <stop offset="0.038" style="stop-color:#9F9F9F;stop-opacity:0.1112"/>
    <stop offset="0.0448" style="stop-color:#D8D8D8;stop-opacity:0.1043"/>
    <stop offset="0.0491" style="stop-color:#FFFFFF;stop-opacity:0.1"/>
    <stop offset="0.9571" style="stop-color:#FFFFFF;stop-opacity:0.1"/>
    <stop offset="0.9816" style="stop-color:#000000;stop-opacity:0.15"/>
  </linearGradient>
  <rect x="70.458" y="1.493" fill-rule="evenodd" fill="url(#SVGID_9_)" width="11.089" height="148.987"/>
  <linearGradient id="SVGID_10_" gradientUnits="userSpaceOnUse" x1="116.4326" y1="7.0078" x2="104.5361" y2="7.0078">
    <stop offset="0" style="stop-color:#000000;stop-opacity:0.15"/>
    <stop offset="0.0688" style="stop-color:#000000;stop-opacity:0.1362"/>
    <stop offset="0.5" style="stop-color:#000000;stop-opacity:0.05"/>
    <stop offset="0.9312" style="stop-color:#000000;stop-opacity:0.1362"/>
    <stop offset="1" style="stop-color:#000000;stop-opacity:0.15"/>
  </linearGradient>
  <rect x="104.536" y="1.493" fill-rule="evenodd" fill="url(#SVGID_10_)" width="11.896" height="11.029"/>
  <linearGradient id="SVGID_11_" gradientUnits="userSpaceOnUse" x1="104.5361" y1="75.9868" x2="93.4473" y2="75.9868">
    <stop offset="0" style="stop-color:#000000;stop-opacity:0.15"/>
    <stop offset="0.0055" style="stop-color:#050505;stop-opacity:0.1444"/>
    <stop offset="0.0116" style="stop-color:#121212;stop-opacity:0.1382"/>
    <stop offset="0.018" style="stop-color:#282828;stop-opacity:0.1317"/>
    <stop offset="0.0245" style="stop-color:#474747;stop-opacity:0.125"/>
    <stop offset="0.0312" style="stop-color:#6F6F6F;stop-opacity:0.1182"/>
    <stop offset="0.038" style="stop-color:#9F9F9F;stop-opacity:0.1112"/>
    <stop offset="0.0448" style="stop-color:#D8D8D8;stop-opacity:0.1043"/>
    <stop offset="0.0491" style="stop-color:#FFFFFF;stop-opacity:0.1"/>
    <stop offset="0.9571" style="stop-color:#FFFFFF;stop-opacity:0.1"/>
    <stop offset="0.9816" style="stop-color:#000000;stop-opacity:0.15"/>
  </linearGradient>
  <rect x="93.447" y="1.493" fill-rule="evenodd" fill="url(#SVGID_11_)" width="11.089" height="148.987"/>
  <linearGradient id="SVGID_12_" gradientUnits="userSpaceOnUse" x1="139.4209" y1="7.0078" x2="127.5244" y2="7.0078">
    <stop offset="0" style="stop-color:#000000;stop-opacity:0.15"/>
    <stop offset="0.0688" style="stop-color:#000000;stop-opacity:0.1362"/>
    <stop offset="0.5" style="stop-color:#000000;stop-opacity:0.05"/>
    <stop offset="0.9312" style="stop-color:#000000;stop-opacity:0.1362"/>
    <stop offset="1" style="stop-color:#000000;stop-opacity:0.15"/>
  </linearGradient>
  <rect x="127.524" y="1.493" fill-rule="evenodd" fill="url(#SVGID_12_)" width="11.896" height="11.029"/>
  <linearGradient id="SVGID_13_" gradientUnits="userSpaceOnUse" x1="24.4805" y1="76.0083" x2="12.582" y2="76.0083">
    <stop offset="0" style="stop-color:#000000;stop-opacity:0.15"/>
    <stop offset="0.0688" style="stop-color:#000000;stop-opacity:0.1362"/>
    <stop offset="0.5" style="stop-color:#000000;stop-opacity:0.05"/>
    <stop offset="0.9312" style="stop-color:#000000;stop-opacity:0.1362"/>
    <stop offset="1" style="stop-color:#000000;stop-opacity:0.15"/>
  </linearGradient>
  <rect x="12.582" y="70.493" fill-rule="evenodd" fill="url(#SVGID_13_)" width="11.898" height="11.03"/>
  <linearGradient id="SVGID_14_" gradientUnits="userSpaceOnUse" x1="47.4688" y1="76.0083" x2="35.5708" y2="76.0083">
    <stop offset="0" style="stop-color:#000000;stop-opacity:0.15"/>
    <stop offset="0.0688" style="stop-color:#000000;stop-opacity:0.1362"/>
    <stop offset="0.5" style="stop-color:#000000;stop-opacity:0.05"/>
    <stop offset="0.9312" style="stop-color:#000000;stop-opacity:0.1362"/>
    <stop offset="1" style="stop-color:#000000;stop-opacity:0.15"/>
  </linearGradient>
  <rect x="35.571" y="70.493" fill-rule="evenodd" fill="url(#SVGID_14_)" width="11.898" height="11.03"/>
  <linearGradient id="SVGID_15_" gradientUnits="userSpaceOnUse" x1="70.457" y1="76.0083" x2="58.5591" y2="76.0083">
    <stop offset="0" style="stop-color:#000000;stop-opacity:0.15"/>
    <stop offset="0.0688" style="stop-color:#000000;stop-opacity:0.1362"/>
    <stop offset="0.5" style="stop-color:#000000;stop-opacity:0.05"/>
    <stop offset="0.9312" style="stop-color:#000000;stop-opacity:0.1362"/>
    <stop offset="1" style="stop-color:#000000;stop-opacity:0.15"/>
  </linearGradient>
  <rect x="58.559" y="70.493" fill-rule="evenodd" fill="url(#SVGID_15_)" width="11.898" height="11.03"/>
  <linearGradient id="SVGID_16_" gradientUnits="userSpaceOnUse" x1="93.4443" y1="76.0083" x2="81.5483" y2="76.0083">
    <stop offset="0" style="stop-color:#000000;stop-opacity:0.15"/>
    <stop offset="0.0688" style="stop-color:#000000;stop-opacity:0.1362"/>
    <stop offset="0.5" style="stop-color:#000000;stop-opacity:0.05"/>
    <stop offset="0.9312" style="stop-color:#000000;stop-opacity:0.1362"/>
    <stop offset="1" style="stop-color:#000000;stop-opacity:0.15"/>
  </linearGradient>
  <rect x="81.548" y="70.493" fill-rule="evenodd" fill="url(#SVGID_16_)" width="11.896" height="11.03"/>
  <linearGradient id="SVGID_17_" gradientUnits="userSpaceOnUse" x1="116.4326" y1="76.0083" x2="104.5361" y2="76.0083">
    <stop offset="0" style="stop-color:#000000;stop-opacity:0.15"/>
    <stop offset="0.0688" style="stop-color:#000000;stop-opacity:0.1362"/>
    <stop offset="0.5" style="stop-color:#000000;stop-opacity:0.05"/>
    <stop offset="0.9312" style="stop-color:#000000;stop-opacity:0.1362"/>
    <stop offset="1" style="stop-color:#000000;stop-opacity:0.15"/>
  </linearGradient>
  <rect x="104.536" y="70.493" fill-rule="evenodd" fill="url(#SVGID_17_)" width="11.896" height="11.03"/>
  <linearGradient id="SVGID_18_" gradientUnits="userSpaceOnUse" x1="139.4209" y1="76.0083" x2="127.5244" y2="76.0083">
    <stop offset="0" style="stop-color:#000000;stop-opacity:0.15"/>
    <stop offset="0.0688" style="stop-color:#000000;stop-opacity:0.1362"/>
    <stop offset="0.5" style="stop-color:#000000;stop-opacity:0.05"/>
    <stop offset="0.9312" style="stop-color:#000000;stop-opacity:0.1362"/>
    <stop offset="1" style="stop-color:#000000;stop-opacity:0.15"/>
  </linearGradient>
  <rect x="127.524" y="70.493" fill-rule="evenodd" fill="url(#SVGID_18_)" width="11.896" height="11.03"/>
  <linearGradient id="SVGID_19_" gradientUnits="userSpaceOnUse" x1="24.4805" y1="144.9917" x2="12.582" y2="144.9917">
    <stop offset="0" style="stop-color:#000000;stop-opacity:0.15"/>
    <stop offset="0.0688" style="stop-color:#000000;stop-opacity:0.1362"/>
    <stop offset="0.5" style="stop-color:#000000;stop-opacity:0.05"/>
    <stop offset="0.9312" style="stop-color:#000000;stop-opacity:0.1362"/>
    <stop offset="1" style="stop-color:#000000;stop-opacity:0.15"/>
  </linearGradient>
  <rect x="12.582" y="139.476" fill-rule="evenodd" fill="url(#SVGID_19_)" width="11.898" height="11.032"/>
  <linearGradient id="SVGID_20_" gradientUnits="userSpaceOnUse" x1="47.4688" y1="144.9917" x2="35.5708" y2="144.9917">
    <stop offset="0" style="stop-color:#000000;stop-opacity:0.15"/>
    <stop offset="0.0688" style="stop-color:#000000;stop-opacity:0.1362"/>
    <stop offset="0.5" style="stop-color:#000000;stop-opacity:0.05"/>
    <stop offset="0.9312" style="stop-color:#000000;stop-opacity:0.1362"/>
    <stop offset="1" style="stop-color:#000000;stop-opacity:0.15"/>
  </linearGradient>
  <rect x="35.571" y="139.476" fill-rule="evenodd" fill="url(#SVGID_20_)" width="11.898" height="11.032"/>
  <linearGradient id="SVGID_21_" gradientUnits="userSpaceOnUse" x1="70.457" y1="144.9917" x2="58.5591" y2="144.9917">
    <stop offset="0" style="stop-color:#000000;stop-opacity:0.15"/>
    <stop offset="0.0688" style="stop-color:#000000;stop-opacity:0.1362"/>
    <stop offset="0.5" style="stop-color:#000000;stop-opacity:0.05"/>
    <stop offset="0.9312" style="stop-color:#000000;stop-opacity:0.1362"/>
    <stop offset="1" style="stop-color:#000000;stop-opacity:0.15"/>
  </linearGradient>
  <rect x="58.559" y="139.476" fill-rule="evenodd" fill="url(#SVGID_21_)" width="11.898" height="11.032"/>
  <linearGradient id="SVGID_22_" gradientUnits="userSpaceOnUse" x1="93.4443" y1="144.9917" x2="81.5483" y2="144.9917">
    <stop offset="0" style="stop-color:#000000;stop-opacity:0.15"/>
    <stop offset="0.0688" style="stop-color:#000000;stop-opacity:0.1362"/>
    <stop offset="0.5" style="stop-color:#000000;stop-opacity:0.05"/>
    <stop offset="0.9312" style="stop-color:#000000;stop-opacity:0.1362"/>
    <stop offset="1" style="stop-color:#000000;stop-opacity:0.15"/>
  </linearGradient>
  <rect x="81.548" y="139.476" fill-rule="evenodd" fill="url(#SVGID_22_)" width="11.896" height="11.032"/>
  <linearGradient id="SVGID_23_" gradientUnits="userSpaceOnUse" x1="116.4326" y1="144.9917" x2="104.5361" y2="144.9917">
    <stop offset="0" style="stop-color:#000000;stop-opacity:0.15"/>
    <stop offset="0.0688" style="stop-color:#000000;stop-opacity:0.1362"/>
    <stop offset="0.5" style="stop-color:#000000;stop-opacity:0.05"/>
    <stop offset="0.9312" style="stop-color:#000000;stop-opacity:0.1362"/>
    <stop offset="1" style="stop-color:#000000;stop-opacity:0.15"/>
  </linearGradient>
  <rect x="104.536" y="139.476" fill-rule="evenodd" fill="url(#SVGID_23_)" width="11.896" height="11.032"/>
  <linearGradient id="SVGID_24_" gradientUnits="userSpaceOnUse" x1="139.4209" y1="144.9917" x2="127.5244" y2="144.9917">
    <stop offset="0" style="stop-color:#000000;stop-opacity:0.15"/>
    <stop offset="0.0688" style="stop-color:#000000;stop-opacity:0.1362"/>
    <stop offset="0.5" style="stop-color:#000000;stop-opacity:0.05"/>
    <stop offset="0.9312" style="stop-color:#000000;stop-opacity:0.1362"/>
    <stop offset="1" style="stop-color:#000000;stop-opacity:0.15"/>
  </linearGradient>
  <rect x="127.524" y="139.476" fill-rule="evenodd" fill="url(#SVGID_24_)" width="11.896" height="11.032"/>
  <linearGradient id="SVGID_25_" gradientUnits="userSpaceOnUse" x1="127.5244" y1="75.9868" x2="116.4346" y2="75.9868">
    <stop offset="0" style="stop-color:#000000;stop-opacity:0.15"/>
    <stop offset="0.0055" style="stop-color:#050505;stop-opacity:0.1444"/>
    <stop offset="0.0116" style="stop-color:#121212;stop-opacity:0.1382"/>
    <stop offset="0.018" style="stop-color:#282828;stop-opacity:0.1317"/>
    <stop offset="0.0245" style="stop-color:#474747;stop-opacity:0.125"/>
    <stop offset="0.0312" style="stop-color:#6F6F6F;stop-opacity:0.1182"/>
    <stop offset="0.038" style="stop-color:#9F9F9F;stop-opacity:0.1112"/>
    <stop offset="0.0448" style="stop-color:#D8D8D8;stop-opacity:0.1043"/>
    <stop offset="0.0491" style="stop-color:#FFFFFF;stop-opacity:0.1"/>
    <stop offset="0.9571" style="stop-color:#FFFFFF;stop-opacity:0.1"/>
    <stop offset="0.9816" style="stop-color:#000000;stop-opacity:0.15"/>
  </linearGradient>
  <rect x="116.435" y="1.493" fill-rule="evenodd" fill="url(#SVGID_25_)" width="11.09" height="148.987"/>
  <linearGradient id="SVGID_26_" gradientUnits="userSpaceOnUse" x1="150.5127" y1="75.9868" x2="139.4229" y2="75.9868">
    <stop offset="0" style="stop-color:#000000;stop-opacity:0.15"/>
    <stop offset="0.0055" style="stop-color:#050505;stop-opacity:0.1444"/>
    <stop offset="0.0116" style="stop-color:#121212;stop-opacity:0.1382"/>
    <stop offset="0.018" style="stop-color:#282828;stop-opacity:0.1317"/>
    <stop offset="0.0245" style="stop-color:#474747;stop-opacity:0.125"/>
    <stop offset="0.0312" style="stop-color:#6F6F6F;stop-opacity:0.1182"/>
    <stop offset="0.038" style="stop-color:#9F9F9F;stop-opacity:0.1112"/>
    <stop offset="0.0448" style="stop-color:#D8D8D8;stop-opacity:0.1043"/>
    <stop offset="0.0491" style="stop-color:#FFFFFF;stop-opacity:0.1"/>
    <stop offset="0.9571" style="stop-color:#FFFFFF;stop-opacity:0.1"/>
    <stop offset="0.9816" style="stop-color:#000000;stop-opacity:0.15"/>
  </linearGradient>
  <rect x="139.423" y="1.493" fill-rule="evenodd" fill="url(#SVGID_26_)" width="11.09" height="148.987"/>
  <g>
    <linearGradient id="SVGID_27_" gradientUnits="userSpaceOnUse" x1="72.5996" y1="112.8276" x2="74.6934" y2="112.8276">
      <stop offset="0" style="stop-color:#000000;stop-opacity:0.15"/>
      <stop offset="0.9877" style="stop-color:#000000;stop-opacity:0.15"/>
    </linearGradient>
    <path fill="url(#SVGID_27_)" d="M74.693,148.876c0,0-2.154-18.315-2.092-38.179c0.062-19.862,0.878-25.575,0.416-33.918&#xD;&#xA;&#x9;&#x9;&#x9;c0.762,8.434-0.255,23.02-0.217,36.73C72.836,127.223,74.693,148.876,74.693,148.876z"/>
    <linearGradient id="SVGID_28_" gradientUnits="userSpaceOnUse" x1="73.5342" y1="120.9536" x2="77.8096" y2="120.9536">
      <stop offset="0" style="stop-color:#000000;stop-opacity:0.15"/>
      <stop offset="0.9877" style="stop-color:#000000;stop-opacity:0.15"/>
    </linearGradient>
    <path fill="url(#SVGID_28_)" d="M73.534,112.828c0,0,0.992,14.881,1.79,16.124c0.798,1.248,2.486-6.982,2.486-6.982&#xD;&#xA;&#x9;&#x9;&#x9;s-2.125,6.688-2.37,6.144C75.196,127.568,74.76,127.018,73.534,112.828z"/>
    <linearGradient id="SVGID_29_" gradientUnits="userSpaceOnUse" x1="75.4131" y1="120.9927" x2="80.1313" y2="120.9927">
      <stop offset="0" style="stop-color:#000000;stop-opacity:0.15"/>
      <stop offset="0.9877" style="stop-color:#000000;stop-opacity:0.15"/>
    </linearGradient>
    <path fill="url(#SVGID_29_)" d="M75.413,143.077c0,0,0.885-8.649,1.309-8.084c0.424,0.567,0.857,5.082,1.271,2.445&#xD;&#xA;&#x9;&#x9;&#x9;c0.415-2.635,2.838-13.496,1.94-38.53c0.436,23.854-2.016,37.187-2.124,37.549c-0.109,0.362-0.782-1.91-1.058-2.042&#xD;&#xA;&#x9;&#x9;&#x9;C76.475,134.28,75.984,135.913,75.413,143.077z"/>
    <linearGradient id="SVGID_30_" gradientUnits="userSpaceOnUse" x1="73.666" y1="86.5742" x2="75.957" y2="86.5742">
      <stop offset="0" style="stop-color:#000000;stop-opacity:0.15"/>
      <stop offset="0.9877" style="stop-color:#000000;stop-opacity:0.15"/>
    </linearGradient>
    <path fill="url(#SVGID_30_)" d="M75.957,120.042c0,0-3.839-15.327-1.579-66.935C73.108,95.986,74.732,112.695,75.957,120.042z"/>
    <linearGradient id="SVGID_31_" gradientUnits="userSpaceOnUse" x1="72.7744" y1="33.9746" x2="76.3262" y2="33.9746">
      <stop offset="0" style="stop-color:#000000;stop-opacity:0.15"/>
      <stop offset="0.9877" style="stop-color:#000000;stop-opacity:0.15"/>
    </linearGradient>
    <path fill="url(#SVGID_31_)" d="M72.908,58.277c0,0-1.169-29.278,3.418-48.604C72.391,30.252,72.908,58.277,72.908,58.277z"/>
    <linearGradient id="SVGID_32_" gradientUnits="userSpaceOnUse" x1="74.7124" y1="72.04" x2="76.6553" y2="72.04">
      <stop offset="0" style="stop-color:#000000;stop-opacity:0.15"/>
      <stop offset="0.9877" style="stop-color:#000000;stop-opacity:0.15"/>
    </linearGradient>
    <path fill="url(#SVGID_32_)" d="M75.795,110.975c0,0-2.936-64.174,0.86-77.87C73.604,47.438,75.363,97.727,75.795,110.975z"/>
    <linearGradient id="SVGID_33_" gradientUnits="userSpaceOnUse" x1="76.416" y1="75.3755" x2="77.9858" y2="75.3755">
      <stop offset="0" style="stop-color:#000000;stop-opacity:0.15"/>
      <stop offset="0.9877" style="stop-color:#000000;stop-opacity:0.15"/>
    </linearGradient>
    <path fill="url(#SVGID_33_)" d="M76.416,101.512c0,0,2.785-40.646,0-52.274C79.064,57.625,77.872,87.187,76.416,101.512z"/>
    <linearGradient id="SVGID_34_" gradientUnits="userSpaceOnUse" x1="77.603" y1="69.6558" x2="79.0435" y2="69.6558">
      <stop offset="0" style="stop-color:#000000;stop-opacity:0.15"/>
      <stop offset="0.9877" style="stop-color:#000000;stop-opacity:0.15"/>
    </linearGradient>
    <path fill="url(#SVGID_34_)" d="M77.603,26.085c0,0,1.67,43.265,1.175,48.838c-0.496,5.575-1.175,38.302-1.175,38.302&#xD;&#xA;&#x9;&#x9;&#x9;c0.53-16.931,1.25-36.858,1.413-38.662S78.625,41.503,77.603,26.085z"/>
    <linearGradient id="SVGID_35_" gradientUnits="userSpaceOnUse" x1="77.3926" y1="41.2441" x2="80.1025" y2="41.2441">
      <stop offset="0" style="stop-color:#000000;stop-opacity:0.15"/>
      <stop offset="0.9877" style="stop-color:#000000;stop-opacity:0.15"/>
    </linearGradient>
    <path fill="url(#SVGID_35_)" d="M77.393,5.709c0,0,2.787,31.377,2.625,71.07C80.667,37.975,77.393,5.709,77.393,5.709z"/>
    <linearGradient id="SVGID_36_" gradientUnits="userSpaceOnUse" x1="78.377" y1="103.2798" x2="79.9575" y2="103.2798">
      <stop offset="0" style="stop-color:#000000;stop-opacity:0.15"/>
      <stop offset="0.9877" style="stop-color:#000000;stop-opacity:0.15"/>
    </linearGradient>
    <path fill="url(#SVGID_36_)" d="M79.958,82.549c0,0-1.757,28.09-1.566,41.462C79.016,101.602,79.958,82.549,79.958,82.549z"/>
  </g>
  <g>
    <linearGradient id="SVGID_37_" gradientUnits="userSpaceOnUse" x1="8.9165" y1="39.0142" x2="11.3315" y2="39.0142">
      <stop offset="0" style="stop-color:#000000;stop-opacity:0.15"/>
      <stop offset="0.9877" style="stop-color:#000000;stop-opacity:0.15"/>
    </linearGradient>
    <path fill="url(#SVGID_37_)" d="M8.917,2.045c0,0,2.485,18.782,2.414,39.152c-0.071,20.37-1.014,26.229-0.48,34.786&#xD;&#xA;&#x9;&#x9;&#x9;c-0.879-8.65,0.294-23.608,0.252-37.669C11.059,24.251,8.917,2.045,8.917,2.045z"/>
    <linearGradient id="SVGID_38_" gradientUnits="userSpaceOnUse" x1="5.3208" y1="30.6797" x2="10.2534" y2="30.6797">
      <stop offset="0" style="stop-color:#000000;stop-opacity:0.15"/>
      <stop offset="0.9877" style="stop-color:#000000;stop-opacity:0.15"/>
    </linearGradient>
    <path fill="url(#SVGID_38_)" d="M10.253,39.014c0,0-1.144-15.26-2.064-16.536c-0.921-1.279-2.868,7.162-2.868,7.162&#xD;&#xA;&#x9;&#x9;&#x9;s2.45-6.858,2.733-6.301S8.84,24.46,10.253,39.014z"/>
    <linearGradient id="SVGID_39_" gradientUnits="userSpaceOnUse" x1="2.6406" y1="30.6401" x2="8.0854" y2="30.6401">
      <stop offset="0" style="stop-color:#000000;stop-opacity:0.15"/>
      <stop offset="0.9877" style="stop-color:#000000;stop-opacity:0.15"/>
    </linearGradient>
    <path fill="url(#SVGID_39_)" d="M8.085,7.991c0,0-1.021,8.872-1.51,8.291c-0.488-0.58-0.988-5.212-1.466-2.508&#xD;&#xA;&#x9;&#x9;&#x9;c-0.48,2.704-3.276,13.842-2.239,39.514C2.367,28.827,5.195,15.153,5.321,14.781c0.125-0.372,0.901,1.958,1.22,2.095&#xD;&#xA;&#x9;&#x9;&#x9;C6.86,17.013,7.426,15.34,8.085,7.991z"/>
    <linearGradient id="SVGID_40_" gradientUnits="userSpaceOnUse" x1="7.457" y1="65.9385" x2="10.1011" y2="65.9385">
      <stop offset="0" style="stop-color:#000000;stop-opacity:0.15"/>
      <stop offset="0.9877" style="stop-color:#000000;stop-opacity:0.15"/>
    </linearGradient>
    <path fill="url(#SVGID_40_)" d="M7.457,31.617c0,0,4.43,15.718,1.821,68.644C10.745,56.286,8.871,39.15,7.457,31.617z"/>
    <linearGradient id="SVGID_41_" gradientUnits="userSpaceOnUse" x1="7.0313" y1="119.8813" x2="11.1294" y2="119.8813">
      <stop offset="0" style="stop-color:#000000;stop-opacity:0.15"/>
      <stop offset="0.9877" style="stop-color:#000000;stop-opacity:0.15"/>
    </linearGradient>
    <path fill="url(#SVGID_41_)" d="M10.976,94.958c0,0,1.348,30.027-3.944,49.847C11.572,123.698,10.976,94.958,10.976,94.958z"/>
    <linearGradient id="SVGID_42_" gradientUnits="userSpaceOnUse" x1="6.6519" y1="80.8433" x2="8.8931" y2="80.8433">
      <stop offset="0" style="stop-color:#000000;stop-opacity:0.15"/>
      <stop offset="0.9877" style="stop-color:#000000;stop-opacity:0.15"/>
    </linearGradient>
    <path fill="url(#SVGID_42_)" d="M7.644,40.913c0,0,3.387,65.814-0.992,79.86C10.172,106.074,8.143,54.5,7.644,40.913z"/>
    <linearGradient id="SVGID_43_" gradientUnits="userSpaceOnUse" x1="5.1157" y1="77.4229" x2="6.9277" y2="77.4229">
      <stop offset="0" style="stop-color:#000000;stop-opacity:0.15"/>
      <stop offset="0.9877" style="stop-color:#000000;stop-opacity:0.15"/>
    </linearGradient>
    <path fill="url(#SVGID_43_)" d="M6.928,50.619c0,0-3.214,41.684,0,53.607C3.872,95.626,5.248,65.311,6.928,50.619z"/>
    <linearGradient id="SVGID_44_" gradientUnits="userSpaceOnUse" x1="3.896" y1="83.2886" x2="5.5591" y2="83.2886">
      <stop offset="0" style="stop-color:#000000;stop-opacity:0.15"/>
      <stop offset="0.9877" style="stop-color:#000000;stop-opacity:0.15"/>
    </linearGradient>
    <path fill="url(#SVGID_44_)" d="M5.558,127.972c0,0-1.927-44.371-1.356-50.087c0.572-5.717,1.357-39.281,1.357-39.281&#xD;&#xA;&#x9;&#x9;&#x9;c-0.613,17.364-1.444,37.801-1.631,39.65C3.741,80.103,4.379,112.161,5.558,127.972z"/>
    <linearGradient id="SVGID_45_" gradientUnits="userSpaceOnUse" x1="2.6733" y1="112.4263" x2="5.8003" y2="112.4263">
      <stop offset="0" style="stop-color:#000000;stop-opacity:0.15"/>
      <stop offset="0.9877" style="stop-color:#000000;stop-opacity:0.15"/>
    </linearGradient>
    <path fill="url(#SVGID_45_)" d="M5.8,148.869c0,0-3.216-32.179-3.028-72.886C2.022,115.779,5.8,148.869,5.8,148.869z"/>
    <linearGradient id="SVGID_46_" gradientUnits="userSpaceOnUse" x1="2.8423" y1="48.8052" x2="4.665" y2="48.8052">
      <stop offset="0" style="stop-color:#000000;stop-opacity:0.15"/>
      <stop offset="0.9877" style="stop-color:#000000;stop-opacity:0.15"/>
    </linearGradient>
    <path fill="url(#SVGID_46_)" d="M2.842,70.065c0,0,2.027-28.805,1.806-42.519C3.928,50.526,2.842,70.065,2.842,70.065z"/>
  </g>
  <g>
    <linearGradient id="SVGID_47_" gradientUnits="userSpaceOnUse" x1="25.3311" y1="111.8481" x2="28.6504" y2="111.8481">
      <stop offset="0" style="stop-color:#000000;stop-opacity:0.15"/>
      <stop offset="0.9877" style="stop-color:#000000;stop-opacity:0.15"/>
    </linearGradient>
    <path fill="url(#SVGID_47_)" d="M28.65,148.153c0,0-2.841-18.258-3.15-38.319c-0.294-19.15,0.675-24.134-0.169-34.289&#xD;&#xA;&#x9;&#x9;&#x9;c1.044,8.434,0.147,23.27,0.452,37.105C26.088,126.492,28.65,148.153,28.65,148.153z"/>
    <linearGradient id="SVGID_48_" gradientUnits="userSpaceOnUse" x1="26.7725" y1="85.3428" x2="29.4258" y2="85.3428">
      <stop offset="0" style="stop-color:#000000;stop-opacity:0.15"/>
      <stop offset="0.9877" style="stop-color:#000000;stop-opacity:0.15"/>
    </linearGradient>
    <path fill="url(#SVGID_48_)" d="M29.426,119.162c0,0-4.445-15.489-1.829-67.638C26.126,94.853,28.007,111.736,29.426,119.162z"/>
    <linearGradient id="SVGID_49_" gradientUnits="userSpaceOnUse" x1="25.7407" y1="32.1914" x2="29.8525" y2="32.1914">
      <stop offset="0" style="stop-color:#000000;stop-opacity:0.15"/>
      <stop offset="0.9877" style="stop-color:#000000;stop-opacity:0.15"/>
    </linearGradient>
    <path fill="url(#SVGID_49_)" d="M25.895,56.749c0,0-1.354-29.585,3.958-49.115C25.296,28.43,25.895,56.749,25.895,56.749z"/>
    <linearGradient id="SVGID_50_" gradientUnits="userSpaceOnUse" x1="27.9844" y1="70.6567" x2="30.2324" y2="70.6567">
      <stop offset="0" style="stop-color:#000000;stop-opacity:0.15"/>
      <stop offset="0.9877" style="stop-color:#000000;stop-opacity:0.15"/>
    </linearGradient>
    <path fill="url(#SVGID_50_)" d="M29.239,110c0,0-3.4-64.848,0.993-78.688C26.701,45.795,28.737,96.612,29.239,110z"/>
    <linearGradient id="SVGID_51_" gradientUnits="userSpaceOnUse" x1="29.9565" y1="74.0264" x2="31.7744" y2="74.0264">
      <stop offset="0" style="stop-color:#000000;stop-opacity:0.15"/>
      <stop offset="0.9877" style="stop-color:#000000;stop-opacity:0.15"/>
    </linearGradient>
    <path fill="url(#SVGID_51_)" d="M29.957,100.437c0,0,3.224-41.071,0-52.82C33.022,56.09,31.642,85.96,29.957,100.437z"/>
    <linearGradient id="SVGID_52_" gradientUnits="userSpaceOnUse" x1="31.3301" y1="68.2476" x2="32.9985" y2="68.2476">
      <stop offset="0" style="stop-color:#000000;stop-opacity:0.15"/>
      <stop offset="0.9877" style="stop-color:#000000;stop-opacity:0.15"/>
    </linearGradient>
    <path fill="url(#SVGID_52_)" d="M31.33,24.219c0,0,1.935,43.719,1.36,49.351c-0.573,5.632-1.36,38.706-1.36,38.706&#xD;&#xA;&#x9;&#x9;&#x9;c0.614-17.11,1.448-37.248,1.636-39.069C33.155,71.385,32.513,39.798,31.33,24.219z"/>
    <linearGradient id="SVGID_53_" gradientUnits="userSpaceOnUse" x1="31.0864" y1="39.5366" x2="34.2246" y2="39.5366">
      <stop offset="0" style="stop-color:#000000;stop-opacity:0.15"/>
      <stop offset="0.9877" style="stop-color:#000000;stop-opacity:0.15"/>
    </linearGradient>
    <path fill="url(#SVGID_53_)" d="M31.086,3.629c0,0,3.227,31.706,3.04,71.815C34.877,36.233,31.086,3.629,31.086,3.629z"/>
    <linearGradient id="SVGID_54_" gradientUnits="userSpaceOnUse" x1="32.2266" y1="112.4731" x2="34.0571" y2="112.4731">
      <stop offset="0" style="stop-color:#000000;stop-opacity:0.15"/>
      <stop offset="0.9877" style="stop-color:#000000;stop-opacity:0.15"/>
    </linearGradient>
    <path fill="url(#SVGID_54_)" d="M34.057,81.276c0,0-2.035,42.268-1.813,62.394C32.966,109.947,34.057,81.276,34.057,81.276z"/>
  </g>
  <g>
    <linearGradient id="SVGID_55_" gradientUnits="userSpaceOnUse" x1="55.2222" y1="39.9751" x2="57.5156" y2="39.9751">
      <stop offset="0" style="stop-color:#000000;stop-opacity:0.15"/>
      <stop offset="0.9877" style="stop-color:#000000;stop-opacity:0.15"/>
    </linearGradient>
    <path fill="url(#SVGID_55_)" d="M55.222,3.223c0,0,2.359,18.673,2.292,38.923c-0.068,20.249-0.962,26.073-0.456,34.582&#xD;&#xA;&#x9;&#x9;&#x9;c-0.835-8.6,0.279-23.469,0.238-37.448C57.257,25.299,55.222,3.223,55.222,3.223z"/>
    <linearGradient id="SVGID_56_" gradientUnits="userSpaceOnUse" x1="51.0454" y1="21.4888" x2="55.624" y2="21.4888">
      <stop offset="0" style="stop-color:#000000;stop-opacity:0.15"/>
      <stop offset="0.9877" style="stop-color:#000000;stop-opacity:0.15"/>
    </linearGradient>
    <path fill="url(#SVGID_56_)" d="M55.624,29.127c0,0-2.291-14.345-3.101-15.217c-0.81-0.875-1.478,8.081-1.478,8.081&#xD;&#xA;&#x9;&#x9;&#x9;s1.193-7.622,1.458-7.192C52.768,15.229,53.198,15.576,55.624,29.127z"/>
    <linearGradient id="SVGID_57_" gradientUnits="userSpaceOnUse" x1="53.8369" y1="66.7407" x2="56.3472" y2="66.7407">
      <stop offset="0" style="stop-color:#000000;stop-opacity:0.15"/>
      <stop offset="0.9877" style="stop-color:#000000;stop-opacity:0.15"/>
    </linearGradient>
    <path fill="url(#SVGID_57_)" d="M53.837,32.621c0,0,4.206,15.626,1.73,68.239C56.958,57.145,55.179,40.111,53.837,32.621z"/>
    <linearGradient id="SVGID_58_" gradientUnits="userSpaceOnUse" x1="53.4341" y1="120.3657" x2="57.3237" y2="120.3657">
      <stop offset="0" style="stop-color:#000000;stop-opacity:0.15"/>
      <stop offset="0.9877" style="stop-color:#000000;stop-opacity:0.15"/>
    </linearGradient>
    <path fill="url(#SVGID_58_)" d="M57.178,95.59c0,0,1.281,29.848-3.744,49.551C57.744,124.162,57.178,95.59,57.178,95.59z"/>
    <linearGradient id="SVGID_59_" gradientUnits="userSpaceOnUse" x1="53.0723" y1="81.5571" x2="55.2007" y2="81.5571">
      <stop offset="0" style="stop-color:#000000;stop-opacity:0.15"/>
      <stop offset="0.9877" style="stop-color:#000000;stop-opacity:0.15"/>
    </linearGradient>
    <path fill="url(#SVGID_59_)" d="M54.014,41.863c0,0,3.216,65.427-0.942,79.388C56.415,106.642,54.488,55.37,54.014,41.863z"/>
    <linearGradient id="SVGID_60_" gradientUnits="userSpaceOnUse" x1="51.6147" y1="78.1587" x2="53.3345" y2="78.1587">
      <stop offset="0" style="stop-color:#000000;stop-opacity:0.15"/>
      <stop offset="0.9877" style="stop-color:#000000;stop-opacity:0.15"/>
    </linearGradient>
    <path fill="url(#SVGID_60_)" d="M53.334,51.512c0,0-3.05,41.438,0,53.292C50.434,96.253,51.741,66.117,53.334,51.512z"/>
    <linearGradient id="SVGID_61_" gradientUnits="userSpaceOnUse" x1="50.4561" y1="83.9888" x2="52.0352" y2="83.9888">
      <stop offset="0" style="stop-color:#000000;stop-opacity:0.15"/>
      <stop offset="0.9877" style="stop-color:#000000;stop-opacity:0.15"/>
    </linearGradient>
    <path fill="url(#SVGID_61_)" d="M52.035,128.41c0,0-1.831-44.11-1.288-49.792c0.543-5.682,1.288-39.05,1.288-39.05&#xD;&#xA;&#x9;&#x9;&#x9;c-0.582,17.261-1.37,37.579-1.548,39.417C50.309,80.823,50.915,112.691,52.035,128.41z"/>
    <linearGradient id="SVGID_62_" gradientUnits="userSpaceOnUse" x1="49.2969" y1="112.9556" x2="52.2651" y2="112.9556">
      <stop offset="0" style="stop-color:#000000;stop-opacity:0.15"/>
      <stop offset="0.9877" style="stop-color:#000000;stop-opacity:0.15"/>
    </linearGradient>
    <path fill="url(#SVGID_62_)" d="M52.265,149.183c0,0-3.053-31.989-2.875-72.456C48.679,116.288,52.265,149.183,52.265,149.183z"/>
    <linearGradient id="SVGID_63_" gradientUnits="userSpaceOnUse" x1="49.4556" y1="49.709" x2="51.1865" y2="49.709">
      <stop offset="0" style="stop-color:#000000;stop-opacity:0.15"/>
      <stop offset="0.9877" style="stop-color:#000000;stop-opacity:0.15"/>
    </linearGradient>
    <path fill="url(#SVGID_63_)" d="M49.456,70.844c0,0,1.925-28.637,1.715-42.271C50.487,51.419,49.456,70.844,49.456,70.844z"/>
  </g>
  <g>
    <linearGradient id="SVGID_64_" gradientUnits="userSpaceOnUse" x1="146.7676" y1="40.5571" x2="150.0869" y2="40.5571">
      <stop offset="0" style="stop-color:#000000;stop-opacity:0.15"/>
      <stop offset="0.9877" style="stop-color:#000000;stop-opacity:0.15"/>
    </linearGradient>
    <path fill="url(#SVGID_64_)" d="M146.768,4.253c0,0,2.842,18.257,3.15,38.318c0.295,19.15-0.675,24.134,0.169,34.289&#xD;&#xA;&#x9;&#x9;&#x9;c-1.044-8.434-0.146-23.27-0.452-37.105C149.33,25.914,146.768,4.253,146.768,4.253z"/>
    <linearGradient id="SVGID_65_" gradientUnits="userSpaceOnUse" x1="145.9932" y1="67.063" x2="148.6455" y2="67.063">
      <stop offset="0" style="stop-color:#000000;stop-opacity:0.15"/>
      <stop offset="0.9877" style="stop-color:#000000;stop-opacity:0.15"/>
    </linearGradient>
    <path fill="url(#SVGID_65_)" d="M145.993,33.245c0,0,4.445,15.487,1.827,67.636C149.291,57.553,147.411,40.669,145.993,33.245z"/>
    <linearGradient id="SVGID_66_" gradientUnits="userSpaceOnUse" x1="145.5654" y1="120.2134" x2="149.6777" y2="120.2134">
      <stop offset="0" style="stop-color:#000000;stop-opacity:0.15"/>
      <stop offset="0.9877" style="stop-color:#000000;stop-opacity:0.15"/>
    </linearGradient>
    <path fill="url(#SVGID_66_)" d="M149.523,95.656c0,0,1.354,29.585-3.958,49.115C150.123,123.974,149.523,95.656,149.523,95.656z"/>
    <linearGradient id="SVGID_67_" gradientUnits="userSpaceOnUse" x1="145.1855" y1="81.7476" x2="147.4336" y2="81.7476">
      <stop offset="0" style="stop-color:#000000;stop-opacity:0.15"/>
      <stop offset="0.9877" style="stop-color:#000000;stop-opacity:0.15"/>
    </linearGradient>
    <path fill="url(#SVGID_67_)" d="M146.179,42.405c0,0,3.4,64.848-0.993,78.686C148.718,106.61,146.682,55.792,146.179,42.405z"/>
    <linearGradient id="SVGID_68_" gradientUnits="userSpaceOnUse" x1="143.6445" y1="78.3794" x2="145.4629" y2="78.3794">
      <stop offset="0" style="stop-color:#000000;stop-opacity:0.15"/>
      <stop offset="0.9877" style="stop-color:#000000;stop-opacity:0.15"/>
    </linearGradient>
    <path fill="url(#SVGID_68_)" d="M145.463,51.969c0,0-3.225,41.071,0,52.821C142.396,96.314,143.777,66.445,145.463,51.969z"/>
    <linearGradient id="SVGID_69_" gradientUnits="userSpaceOnUse" x1="142.4189" y1="84.1572" x2="144.0869" y2="84.1572">
      <stop offset="0" style="stop-color:#000000;stop-opacity:0.15"/>
      <stop offset="0.9877" style="stop-color:#000000;stop-opacity:0.15"/>
    </linearGradient>
    <path fill="url(#SVGID_69_)" d="M144.087,128.185c0,0-1.934-43.718-1.359-49.351c0.573-5.632,1.359-38.705,1.359-38.705&#xD;&#xA;&#x9;&#x9;&#x9;c-0.614,17.11-1.447,37.247-1.635,39.069C142.263,81.02,142.904,112.607,144.087,128.185z"/>
    <linearGradient id="SVGID_70_" gradientUnits="userSpaceOnUse" x1="141.1934" y1="112.8687" x2="144.3311" y2="112.8687">
      <stop offset="0" style="stop-color:#000000;stop-opacity:0.15"/>
      <stop offset="0.9877" style="stop-color:#000000;stop-opacity:0.15"/>
    </linearGradient>
    <path fill="url(#SVGID_70_)" d="M144.331,148.776c0,0-3.227-31.705-3.039-71.815C140.539,116.172,144.331,148.776,144.331,148.776&#xD;&#xA;&#x9;&#x9;&#x9;z"/>
    <linearGradient id="SVGID_71_" gradientUnits="userSpaceOnUse" x1="141.3613" y1="39.9326" x2="143.1914" y2="39.9326">
      <stop offset="0" style="stop-color:#000000;stop-opacity:0.15"/>
      <stop offset="0.9877" style="stop-color:#000000;stop-opacity:0.15"/>
    </linearGradient>
    <path fill="url(#SVGID_71_)" d="M141.361,71.129c0,0,2.036-42.269,1.813-62.393C142.452,42.458,141.361,71.129,141.361,71.129z"/>
  </g>
  <g>
    <linearGradient id="SVGID_72_" gradientUnits="userSpaceOnUse" x1="100.5518" y1="40.5571" x2="103.8691" y2="40.5571">
      <stop offset="0" style="stop-color:#000000;stop-opacity:0.15"/>
      <stop offset="0.9877" style="stop-color:#000000;stop-opacity:0.15"/>
    </linearGradient>
    <path fill="url(#SVGID_72_)" d="M100.552,4.253c0,0,2.842,18.257,3.149,38.318c0.296,19.15-0.675,24.134,0.168,34.289&#xD;&#xA;&#x9;&#x9;&#x9;c-1.043-8.434-0.145-23.27-0.45-37.105C103.113,25.914,100.552,4.253,100.552,4.253z"/>
    <linearGradient id="SVGID_73_" gradientUnits="userSpaceOnUse" x1="99.7754" y1="67.063" x2="102.4287" y2="67.063">
      <stop offset="0" style="stop-color:#000000;stop-opacity:0.15"/>
      <stop offset="0.9877" style="stop-color:#000000;stop-opacity:0.15"/>
    </linearGradient>
    <path fill="url(#SVGID_73_)" d="M99.775,33.245c0,0,4.446,15.487,1.828,67.636C103.075,57.553,101.195,40.669,99.775,33.245z"/>
    <linearGradient id="SVGID_74_" gradientUnits="userSpaceOnUse" x1="99.3486" y1="120.2134" x2="103.46" y2="120.2134">
      <stop offset="0" style="stop-color:#000000;stop-opacity:0.15"/>
      <stop offset="0.9877" style="stop-color:#000000;stop-opacity:0.15"/>
    </linearGradient>
    <path fill="url(#SVGID_74_)" d="M103.306,95.656c0,0,1.355,29.585-3.957,49.115C103.905,123.974,103.306,95.656,103.306,95.656z"/>
    <linearGradient id="SVGID_75_" gradientUnits="userSpaceOnUse" x1="98.9688" y1="81.7476" x2="101.2168" y2="81.7476">
      <stop offset="0" style="stop-color:#000000;stop-opacity:0.15"/>
      <stop offset="0.9877" style="stop-color:#000000;stop-opacity:0.15"/>
    </linearGradient>
    <path fill="url(#SVGID_75_)" d="M99.963,42.405c0,0,3.399,64.848-0.994,78.686C102.501,106.61,100.465,55.792,99.963,42.405z"/>
    <linearGradient id="SVGID_76_" gradientUnits="userSpaceOnUse" x1="97.4277" y1="78.3794" x2="99.2451" y2="78.3794">
      <stop offset="0" style="stop-color:#000000;stop-opacity:0.15"/>
      <stop offset="0.9877" style="stop-color:#000000;stop-opacity:0.15"/>
    </linearGradient>
    <path fill="url(#SVGID_76_)" d="M99.245,51.969c0,0-3.225,41.071,0,52.821C96.18,96.314,97.561,66.445,99.245,51.969z"/>
    <linearGradient id="SVGID_77_" gradientUnits="userSpaceOnUse" x1="96.2031" y1="84.1572" x2="97.8711" y2="84.1572">
      <stop offset="0" style="stop-color:#000000;stop-opacity:0.15"/>
      <stop offset="0.9877" style="stop-color:#000000;stop-opacity:0.15"/>
    </linearGradient>
    <path fill="url(#SVGID_77_)" d="M97.871,128.185c0,0-1.934-43.718-1.359-49.351c0.572-5.632,1.359-38.705,1.359-38.705&#xD;&#xA;&#x9;&#x9;&#x9;c-0.615,17.11-1.448,37.247-1.636,39.069C96.047,81.02,96.688,112.607,97.871,128.185z"/>
    <linearGradient id="SVGID_78_" gradientUnits="userSpaceOnUse" x1="94.9775" y1="112.8687" x2="98.1143" y2="112.8687">
      <stop offset="0" style="stop-color:#000000;stop-opacity:0.15"/>
      <stop offset="0.9877" style="stop-color:#000000;stop-opacity:0.15"/>
    </linearGradient>
    <path fill="url(#SVGID_78_)" d="M98.114,148.776c0,0-3.227-31.705-3.038-71.815C94.324,116.172,98.114,148.776,98.114,148.776z"/>
    <linearGradient id="SVGID_79_" gradientUnits="userSpaceOnUse" x1="95.1445" y1="39.9326" x2="96.9746" y2="39.9326">
      <stop offset="0" style="stop-color:#000000;stop-opacity:0.15"/>
      <stop offset="0.9877" style="stop-color:#000000;stop-opacity:0.15"/>
    </linearGradient>
    <path fill="url(#SVGID_79_)" d="M95.145,71.129c0,0,2.035-42.269,1.813-62.393C96.235,42.458,95.145,71.129,95.145,71.129z"/>
  </g>
  <g>
    <linearGradient id="SVGID_80_" gradientUnits="userSpaceOnUse" x1="117.9033" y1="112.4302" x2="120.1963" y2="112.4302">
      <stop offset="0" style="stop-color:#000000;stop-opacity:0.15"/>
      <stop offset="0.9877" style="stop-color:#000000;stop-opacity:0.15"/>
    </linearGradient>
    <path fill="url(#SVGID_80_)" d="M120.196,149.183c0,0-2.36-18.672-2.292-38.923c0.067-20.25,0.963-26.074,0.455-34.582&#xD;&#xA;&#x9;&#x9;&#x9;c0.835,8.6-0.278,23.47-0.238,37.448C118.16,127.106,120.196,149.183,120.196,149.183z"/>
    <linearGradient id="SVGID_81_" gradientUnits="userSpaceOnUse" x1="119.7959" y1="130.9165" x2="124.3721" y2="130.9165">
      <stop offset="0" style="stop-color:#000000;stop-opacity:0.15"/>
      <stop offset="0.9877" style="stop-color:#000000;stop-opacity:0.15"/>
    </linearGradient>
    <path fill="url(#SVGID_81_)" d="M119.796,123.278c0,0,2.289,14.344,3.099,15.217c0.811,0.875,1.478-8.081,1.478-8.081&#xD;&#xA;&#x9;&#x9;&#x9;s-1.192,7.621-1.457,7.193C122.651,137.177,122.221,136.829,119.796,123.278z"/>
    <linearGradient id="SVGID_82_" gradientUnits="userSpaceOnUse" x1="119.0703" y1="85.6646" x2="121.582" y2="85.6646">
      <stop offset="0" style="stop-color:#000000;stop-opacity:0.15"/>
      <stop offset="0.9877" style="stop-color:#000000;stop-opacity:0.15"/>
    </linearGradient>
    <path fill="url(#SVGID_82_)" d="M121.582,119.785c0,0-4.206-15.626-1.731-68.24C118.46,95.26,120.238,112.294,121.582,119.785z"/>
    <linearGradient id="SVGID_83_" gradientUnits="userSpaceOnUse" x1="118.0938" y1="32.04" x2="121.9844" y2="32.04">
      <stop offset="0" style="stop-color:#000000;stop-opacity:0.15"/>
      <stop offset="0.9877" style="stop-color:#000000;stop-opacity:0.15"/>
    </linearGradient>
    <path fill="url(#SVGID_83_)" d="M118.24,56.815c0,0-1.281-29.849,3.744-49.551C117.674,28.243,118.24,56.815,118.24,56.815z"/>
    <linearGradient id="SVGID_84_" gradientUnits="userSpaceOnUse" x1="120.2178" y1="70.8472" x2="122.3457" y2="70.8472">
      <stop offset="0" style="stop-color:#000000;stop-opacity:0.15"/>
      <stop offset="0.9877" style="stop-color:#000000;stop-opacity:0.15"/>
    </linearGradient>
    <path fill="url(#SVGID_84_)" d="M121.404,110.542c0,0-3.217-65.427,0.941-79.388C119.003,45.763,120.931,97.035,121.404,110.542z"/>
    <linearGradient id="SVGID_85_" gradientUnits="userSpaceOnUse" x1="122.083" y1="74.2466" x2="123.8027" y2="74.2466">
      <stop offset="0" style="stop-color:#000000;stop-opacity:0.15"/>
      <stop offset="0.9877" style="stop-color:#000000;stop-opacity:0.15"/>
    </linearGradient>
    <path fill="url(#SVGID_85_)" d="M122.083,100.893c0,0,3.051-41.438,0-53.292C124.983,56.151,123.678,86.288,122.083,100.893z"/>
    <linearGradient id="SVGID_86_" gradientUnits="userSpaceOnUse" x1="123.3828" y1="68.4165" x2="124.9609" y2="68.4165">
      <stop offset="0" style="stop-color:#000000;stop-opacity:0.15"/>
      <stop offset="0.9877" style="stop-color:#000000;stop-opacity:0.15"/>
    </linearGradient>
    <path fill="url(#SVGID_86_)" d="M123.383,23.996c0,0,1.829,44.109,1.287,49.791c-0.542,5.683-1.287,39.049-1.287,39.049&#xD;&#xA;&#x9;&#x9;&#x9;c0.581-17.26,1.371-37.578,1.548-39.416C125.108,71.582,124.502,39.714,123.383,23.996z"/>
    <linearGradient id="SVGID_87_" gradientUnits="userSpaceOnUse" x1="123.1523" y1="39.4507" x2="126.1211" y2="39.4507">
      <stop offset="0" style="stop-color:#000000;stop-opacity:0.15"/>
      <stop offset="0.9877" style="stop-color:#000000;stop-opacity:0.15"/>
    </linearGradient>
    <path fill="url(#SVGID_87_)" d="M123.152,3.223c0,0,3.055,31.988,2.875,72.456C126.74,36.117,123.152,3.223,123.152,3.223z"/>
    <linearGradient id="SVGID_88_" gradientUnits="userSpaceOnUse" x1="124.2314" y1="102.6953" x2="125.9619" y2="102.6953">
      <stop offset="0" style="stop-color:#000000;stop-opacity:0.15"/>
      <stop offset="0.9877" style="stop-color:#000000;stop-opacity:0.15"/>
    </linearGradient>
    <path fill="url(#SVGID_88_)" d="M125.962,81.561c0,0-1.924,28.638-1.715,42.269C124.931,100.986,125.962,81.561,125.962,81.561z"/>
  </g>
</svg>