<svg version="1.2" baseProfile="tiny" viewBox="0 0 152.0 152.0" xmlns:xlink="http://www.w3.org/1999/xlink" xmlns="http://www.w3.org/2000/svg">
<path style="fill:#ffffff;" d="M150.5074,1.4926L24.4796,1.4926L12.5826,1.4926L1.4926,1.4926L1.4926,12.5218L1.4926,139.4737L1.4926,150.5058L12.5826,150.5058L24.4796,150.5058L35.568,150.5058L47.4666,150.5058L58.5565,150.5058L150.3478,150.5058L150.3478,150.4998L150.5058,150.4998L150.5058,1.4926M24.4796,12.5218L24.4796,70.493L12.5826,70.493L12.5826,12.5218L24.4796,12.5218M12.5826,139.4737L12.5826,81.5237L24.4796,81.5237L24.4796,139.4737L12.5826,139.4737M47.4787,12.5218L47.4787,70.493L35.5817,70.493L35.5817,12.5218L47.4787,12.5218M35.5817,139.4737L35.5817,81.5237L47.4787,81.5237L47.4787,139.4737L35.5817,139.4737M70.4763,12.5218L70.4763,70.493L58.5793,70.493L58.5793,12.5218L70.4763,12.5218M58.5793,139.4737L58.5793,81.5237L70.4763,81.5237L70.4763,139.4737L58.5793,139.4737M93.4754,12.5218L93.4754,70.493L81.5784,70.493L81.5784,12.5218L93.4754,12.5218M81.5784,139.4737L81.5784,81.5237L93.4739,81.5237L93.4739,139.4737L81.5784,139.4737M116.473,12.5218L116.473,70.493L104.5775,70.493L104.5775,12.5218L116.473,12.5218M104.576,139.4737L104.576,81.5237L116.4715,81.5237L116.4715,139.4737L104.576,139.4737M139.4706,12.5218L139.4706,70.493L127.5736,70.493L127.5736,12.5218L139.4706,12.5218M127.5736,139.4737L127.5736,81.5237L139.4706,81.5237L139.4706,139.4737L127.5736,139.4737Z"/>
</svg>